<svg xmlns="http://www.w3.org/2000/svg" xmlns:xlink="http://www.w3.org/1999/xlink" width="31" height="31" viewBox="0 0 31 31">
    <defs>
        <path id="i3i0ppl67a" d="M13.528 5.84l-.174.085c-1.432.738-2.28 2.219-2.28 4.337l-.001 2.756H7.875v3.615h3.198v8.744C5.088 24.443.508 19.265.508 13.02c0-6.91 5.602-12.51 12.51-12.51 6.91 0 12.51 5.6 12.51 12.51 0 6.246-4.579 11.424-10.563 12.358v-8.744h2.92l.555-3.614h-3.475l-.003-2.347c0-.289.042-.576.14-.838l.046-.111c.05-.109.11-.213.181-.31l.075-.093c.133-.153.3-.285.505-.386l.128-.057.035-.014c.258-.098.57-.154.94-.154h1.567V5.651s-.856-.158-1.88-.23l-.177-.01c-.24-.015-.487-.023-.733-.023-.85 0-1.61.154-2.26.452z"/>
    </defs>
    <g fill="none" fill-rule="evenodd">
        <g>
            <g>
                <g>
                    <g>
                        <path d="M0 0H30.5V30.5H0z" transform="translate(-1202 -39) translate(1202 39)"/>
                        <g transform="translate(-1202 -39) translate(1202 39) translate(2.542 2.542)">
                            <mask id="iv0jwj74yb" fill="#fff">
                                <use xlink:href="#i3i0ppl67a"/>
                            </mask>
                            <path fill="#573912" fill-rule="nonzero" d="M7.104 38.125l.065-.064h1.368l.457-.192.325-.257.13-.32.066-1.41.065-.128v-8.525l-.065-.128v-3.718l.065-.128.065-1.474-.13-1.09-.13-.256.195-.77.065-.833.196-.256.782-.192 1.76.128.325-.128h1.043l.065.064h.522l.13.064 1.238-.128.717.192.26.32v1.026l.066.128-.065 1.09.065.513-.065.128v.769l.065.128-.13 1.09.13.192v.897l.391.129-.13.192-.261.064.065.384-.13.45v.512l.13.256-.13.385.13.32v.577l-.065.128v2.18l.065.064v1.666l-.13.128v.77l.065.128v.833l-.065.128v1.218l.065.128v1.538l.391.834.456.192.391-.064h1.63l.13.064h.521l.13.064h1.695l.652-.32-.066.256.261.064.326-.128 1.238.064.717-.513.065-1.09-.065-.128.13-.961v-.897l-.065-.129v-.897l.13-.256-.065-.77-.065-.128v-.512l.065-.129v-1.987l.066-.512-.13-.705.064-.129v-1.281l-.065-.065v-.897l.065-.128v-.641l-.065-.128v-.513l.065-.128v-2.372l.066-.384-.196-.385.13-.256v-1.218l-.195-.192.13-.385-.13-.384.195-.77v-2.05l-.065-.129v-1.025l.065-.129-.065-1.09.065-.063V11.91l-.065-.128v-4.23l.065-.129v-.512l-.195-.385.13-.64v-3.27l.13-.512v-.77l-.065-.128v-2.82l.066-.128v-.77l-.196-.512.065-.128-.065-1.026-.13-.448-.391-.641.065-.065.456.321.13-.641V-7.19l-.325-1.026-.848-.192h-.586l-.13.064h-1.304l-.13-.064H20.79l-.522.128-.456-.192-.847.064-.522.128-1.042.064-.522.513-.13.32v.962l.195-.128.196-.32.13.127v.257l-.521.384-.065.193.065.128v1.474l-.065.128v1.41l.195.834-.13.32.13.256v.193l-.195.192v.513l.065.128v.577l-.065.128v1.346l.26.32-.195.193-.065.192.195 1.026-.13.833.13.769-.195.32v2.051l.13.257.13.064-.26.961v.513l.13.192h.13l.066.129-.261.064-.065.512-.26.513-.327.192h-.977l-.587-.128H13.36l-.13.128.195.193.196.064.13.192-.13-.064h-.847l-.13-.449h-2.412l-.26-.064-.392-.384-.065-.257.065-1.538.065-.128-.065-.897-.13-.45.13-.32-.195-.256.195-1.218V4.54l-.195-.064-.13.256-.196-.064.326-.512.26-.257-.195-.64v-.706l.065-.128v-.513l.065-.128v-.577l.065-.128-.13-1.026.13-1.474-.065-.128v-.64l-.065-.129v-1.026l.065-.128v-2.435l-.13-.577.26-.833-.26-.513-.391-.32-.652-.193-1.043-.128-.521.128H5.93l-.13-.064h-.652l-.13.064H3.062l-.13-.064h-.978l-.521.192-.456.577-.066.77.13.64-.13.897.13 1.603-.064.128v.77l-.066.127v.77l.066.128v1.41l-.066.128L.978.758l-.13.128.13 2.692-.13.32v.513l.064.128v3.013l-.065.128.13 1.474.066.256-.13.705.13.32V13l-.065.128v1.602l-.066.128.066 1.218-.066.513.13.256-.13.32v.642l.066.128v.961l-.066.129v.961l.066.128v1.282l-.066.128v1.218l.13.898-.13.192v1.282l-.065.128.065 1.41.066.128-.066 1.282.13.577-.064 1.538-.066.128v1.731l.13.128v.641l-.195.449.13.32-.13 1.154v1.73l.26.962.327.449.521.192h.587l.13.064 1.369-.064.13-.064h1.043l.586.128h1.304zm14.5-44.22h-.115l-.058-.173.173-.345.173.172-.173.346zm-2.513-.057l-.345-.058.23-.23.23-.116.058.058.115.057-.288.289zm1.522 0l-.058-.116.116-.173.23-.115.058.058-.116.23-.23.116zm-1.435 1.069h-.23l-.231-.25.057-.398-.057-.2h.346v.1l.288.2.057.199-.23.349zm2.685-.222l-.576-.288.173-.116.461.058-.058.23v.116zm1.378-.03l-.115-.057.057-.173v-.115l.23.058.058.23-.23.058zm-.76.877l-.231-.173-.058-.23.519.057v.058l-.058.173-.173.115zm-3.246 1.049l-.23-.115-.173-.288-.115-.058v-.173l.23-.173.173.058-.115.23.115.116.173.115.115.057-.057.173-.116.058zm.444-.23h-.115l.115-.173.173.057.173-.23h.23l-.057.115-.519.23zm.796 1.097l-.142-.23v-.463l.07-.077v-.462l.778-.231.211-.231-.07.385.282.54h.283l.282-.309.07-.154.565.693.071.385-.494-.23h-.565l-.141.076h-.565l.212-.385-.212-.308-.424.924-.211.077zm2.824-1.126l-.23-.23.345-.058.115.115v.115l-.23.058zm-4.265 1.077l-.288-.173.345-.345.116-.23h.172l-.23.23-.115.518zm.905-.029h-.116l-.057-.172.115-.519.173.115-.115.461v.115zm.99.675l-.402-.115.115-.173.23-.058.115.115v.116l-.057.115zM6.384-.925h-.115v-.115h-.115l.057-.23.23-.346.116.057-.173.634zM19.863 0l-.094-.117-.048-.76-.235-.292v-.409l.047-.116.47.058-.14.117.094.175-.141.234.188.234.047.175.282.292v.117h-.094l-.188-.175-.094.409-.094.058zm2.058-.847l-.576-.452-.058-.395.634.677v.17zM18.331.847h-.173L17.87.525l.057-.323v-.484l.173-.484.173-.081.173.161.115.484-.23.081-.23.484v.323l.287-.08-.058.241zM19.794-.28l-.115-.057.058-.23h.288l.115.057-.115.173-.23.057zm-1.521.058L18.1-.28l-.058-.172.23-.173.059.057.057.116-.115.23zm4.602 1.07l-.254-.054-.763-.476-.508.265h-.17l.255-.265.678-.212.254-.106-.085.318.508-.16.085.69zm-16.233 0L6.066.623 6.24 0l.173.045.057.356.173.268v.178zM3.138.567L2.792.51V.395L2.908.28h.115l.115.115v.173zm3.948.028L7.03.424 7.2.25h.173l-.057.288-.23.057zm14.095.058V.54l.223-.173h.267V.193l.357.115-.09.288-.757.058zm-2.234.79l-.173-.173v-.115l.116.057.23-.115h.23v.115l-.172.173-.23.058zm2.04.115l-.345-.173-.058-.23-.058-.116.173-.057.173.23.115.346zm-2.83-.029l-.23-.173v-.345l.23.115.289-.058.057.058v.346l-.345.057zm3.39-.086h-.116l-.057-.173.115-.173.346.058-.058.172-.23.116zm1.78-.03l-.23-.057v-.115l.173-.115h.115l.115.23-.173.058zm-15.924.059l-.173-.058-.345-.346h.345l.23.115.058.116v.115l-.115.058zm10.051.876l-.23-.346v-.115l.288.115v.23l-.058.116zm4.064.057l-.115-.115.288-.461.115.058-.058.403-.23.115zm-2.744-.086l-.057-.115.115-.173.346-.116.23.23v.116l-.288-.057-.346.115zm-13.21.029l-.23-.058-.115-.288.058-.115.518.172-.115.23-.115.059zm14.519-.03h-.288l-.23-.114.172-.23.346-.059.172.173v.116l-.172.115zm-1.105 1.917h-.113l-.113-.203-.057-.34.17-.338-.226-.474.452-.068.226-.271.17.135v.136l-.34.135h-.056l.113.475-.226.339.056.27-.056.204zm3.704-1.011h-.23l-.231-.116-.115-.288.173-.115.345.058.173.173v.115l-.115.173zm-.991 1.011l-.23-.068-.174-.203.576-1.423h.058l-.058.542-.288.678h.116l.115-.136.115-.068v.61l-.23.068zM3.755 3.196l-.115-.173.172-.288.116.057.057.058-.057.23-.173.116zm14.633.933l-.288-.345-.058-.23.173-.058.116.173.057.345v.115zm2.254-.201l-.288-.058.115-.173h.634l.057.173-.518.058zm3.331.057l-.115-.115.23-.173.346-.057-.115.23-.346.115zm-3.357.963l-.141-.115-.142-.461h.66l.188.23v.115l-.283-.115-.282.346zm.083.79h-.173l.116-.346.115-.115.173.057.057.173-.288.23zm-1.78 0l-.116-.116.058-.23.173-.115.288.057v.115l-.115.23-.289.058zm3.648 0h-.288l.057-.346-.057-.115h.23l.115.172-.057.288zm-3.25.962l-.452-.173.056-.115-.282-.403.508.23.113.173.226.115-.17.173zm-13.522 0l-.173-.346-.173.058-.23-.288.23-.115.173.115.173.576zm15.609 1.772l-.201-.195-.067-.326v-.13l.268-.261-.134-.26-.134-.066-.134.065-.134-.13.134-.26h-.535l-.134-.196.134-.326.803-.456-.134.39-.2.066.267.652.2.13.335.065.2-.13.268-.391.134-.066v.261l.134.26.133.066-.334.196.067.13.401.065.134.13v.196l-1.204-.26-.334.195.334.521-.267.065zm-.088-1.916V6.44l.288-.23.23-.058h.058l-.23.23-.346.173zm-3.746.029l-.23-.058-.174-.346.116-.057.288.23v.23zm-10.225.028l-.057-.172.057-.116-.23.058-.173-.115-.057-.115.518-.058v.23l.115.23-.173.058zm.761.876l-.23-.115.057-.23.173-.23.115.172-.115.403zm10.841.087l-.173-.173.173-.403.23-.173.058.058h.116l-.173.172-.23.519zm4.524-.23l-.172-.058-.23.057-.058-.115h.23l.23-.173h.116l-.116.288zm-6.16 0h-.231l-.058-.116v-.115l.692-.058-.288.058-.116.23zm.904.99l-.173-.115.058-.403.115-.057h.058l.115.172-.173.404zm.963-.115l-.346-.23.058-.115h.23l.173.173v.115l-.115.057zm.833.251l-.081-.2-.242-.198-.242.05h-.162l.242-.1-.806.15-.081-.15.403-.25v-.149l.162.05v.25l.161.049h.646l.242.15.08.249-.322.1zM18.3 8.28l-.287-.058v-.115l.172-.173v-.115l.23.115v.23l-.114.116zm-13.67.76l-.173-.057.115-.173.23-.057.058.057v.173l-.23.058zm14.72.059l-.404-.058-.173-.173v-.115l.116-.058.172.058.289.346zm-2.04.115l-.173-.346v-.23l.403-.058.058.058v.345l-.173.173-.116.058zm2.455.76l-.116-.057.173-.288.23-.115.116.057-.403.404zM3.697 9.917l-.115-.058.346-.288.115.058-.058.23-.288.058zm13.873.029h-.346l-.115-.058.057-.346.461.346-.057.058zm-12.15-.03l-.115-.114-.057-.173.173-.058.288.173.057.115-.345.058zm.85 1.099l-.226-.085.282-.593-.113-.254-.226-.085-.056-.17.338-.423.226-.085.283.17-.057.254-.226.085-.056.17.113.338v.339l-.283.339zm16.302-.02l-.181-.23-.363.172-.363-.288h-.242l-.121-.346-.121-.057.181-.058.363.173.242.23.424-.173.242.058.242.288-.303.23zm-17.997-.087l-.056-.173-.283-.345.565-.116.17.058.112.058-.508.518zm18.752.732l-.172-.115-.058-.115.058-.173.288.115.057.115-.173.173zm-2.342 1.917v-.308l-.13-.309-.261-.154-.26.077v.463l-.131.077-.326-.463-.586.231h-.652l-.26-.154-.066.154.13.232-.195.077-.196-.231v-.309l.261-.308v-.154l-.521-.154v-.385l.326-.077.325.231.196.77.26-.23.196.076.065.154.847-.154.326-.154.457.154.39.385-.065.155.066.154-.196.154zm-6.333 0h-.1l.399-.777-.15-.212-.05-.282-.249-.212-.1-.212.698.141.15.212-.299.353.15.141.05.212-.1.283-.399.353zm-2.454-1.07l-.115-.057.115-.346h.116l.172.173-.057.115-.23.115zm-5.7.848l-.288-.058.058-.346.115.058.115.23v.116zm.819.028H7.2l-.115-.115v-.345l.173.115.058.345zm3.346 2.735l-.186-.072-.31-.72v-.217l.496-.072.062-.36-.062-.29.186-.216.558.217.805-.65-.062-.143-.558-.36.062-.29.186-.216.062.217-.062.144.062.072.186-.072.62 1.154-.248.072-.248.144.062-.216-.062-.145-.496.505-.186.072-.062-.144-.495.505-.31.793v.288zM5.65 13.42l-.23-.115-.173-.346.46-.115.058.058-.115.518zm7.567.058l-.172-.116-.058-.345-.115-.058.23-.173.23.058.058.403-.057.115-.116.116zm6.912 1.772h-.203l-.271-.113-.136-.17-.068-.112-.068.113-.338-.735-.272.057-.135-.057.068-.226.542-.282v-.17l.271.057.136.226-.34.339.34.508.27.226.407.113-.203.226zm3.341-1.012l-.288-.172h-.172v-.173l.172-.173.404.173-.116.345zM4.467 15.25l-.077-.41-.308-.36h-.154l-.154-.052.308-.462-.231-.051-.154.051-.308-.205.616-.205.385.05.077.309-.154.565.462.41h.308l-.077.206-.154.103-.385.051zm13.918-1.07l-.424-.172-.17.058h-.169l-.423.115-.255-.058.509-.288 1.186-.057-.254.403zm-1.634.058l-.403-.115-.058-.115.23-.288h.231l-.115.23.115.288zm-7.296.905l.23-.518.23-.115.116.46-.23-.057-.346.23zm8.337.954l-.509-.294h-.339v-.148l.283-.294.056-.148-.056-.294.17-.516h.169v.59l.226.662v.442zM6.354 15.23l-.173-.173-.057-.519.345-.115.116.058v.23l-.058.115v.346l-.173.058zM9.07 15l-.598-.058.05-.116.3-.172.298.057h.2l-.05.173-.2.115zm13.266.172L22.28 15l.23-.403v-.115l.115.057v.23l-.288.404zm-4.403 1.772l-.141-.145.047-.871.235.218.047-.146-.141-.653.376-.363.095-.581.14.145.048.436-.094.218-.094-.073-.095.073-.188.726.094.58-.047.073-.047-.072-.188-.145-.047.217.047.29-.047.073zm.542-1.974l-.519-.115.058-.173h.172l.23.173.059.115zm-15.28.173H2.85l-.115-.173v-.172l.173-.058.057-.23.23.633zM12.084 15l-.058-.057-.057-.116.115-.172.288.057.23.23-.518.058zm4.812-.029h-.46l-.231-.115-.058-.115.346-.058.23.058.173.23zm-5.371.058l-.173-.058-.058-.115v-.115l.23-.115.059.23-.058.173zm-2.427.876l-.23-.058-.173-.288.173-.115.173.058.057.115v.288zm.805-.058l-.37-.057-.213-.23.212-.058.636.115v.058l-.106.115-.16.057zm12.492 0l-.115-.057.115-.288.23.115v.115l-.23.115zm-1.752.087l-.058-.346.23-.173.058.058.058.173-.058.23-.23.058zm-12.02.79h-.15l.3-.289.248-.115.25.058.05.115v.115l-.2-.115-.498.23zm12.728.99l-.17-.287.283-.058v-.288l.113-.058.282.173.17.23-.057.116-.282-.115-.113.23-.226.058zm-16.131.03l.058-.116.23-.23-.058-.288-.115-.115h.461l-.058.23-.288.461-.23.058zm14.979.896h-.576l.172-.593.116-1.102.173.17v.593l-.173.424v.338l.288.17zm-14.691-.193h-.115l-.173-.23.115.057.058-.23.173-.058.23.057-.288.404zm-2.628-.058h-.23l.057-.288.23-.058.289.173.057.116-.23-.058-.173.115zm19.949.202h-.094l-.236-.288.095-.115v-.116l-.471.173-.094-.173.094-.057.141.057.141-.23h.283l.14.173-.046.288-.094.057.188.058-.047.173zm-3.91-.144l-.057-.288.288-.173.115.057-.346.404zm-13.782 1.04l-.053-.212.212-.264.265-.053-.053-.16-.106-.052v-.106l.318.106.212.265-.212.211-.212-.053-.159.053-.212.265zM3.9 19.351h-.115l-.116-.173v-.404h.116l.173.23v.231l-.058.116zm16.57 0h-.115v-.058l.057-.519.576.116.173.23v.115l-.288-.115-.403.23zm-1.262.982l-.346-.17h-.115l.115-.677.23.113.23-.113-.057.339-.115.113.23.282-.172.113zm1.406-.28l-.058-.057.058-.23.346.057-.116.173-.23.058zm1.164.087l-.346-.115-.057-.115.288-.115-.173-.116h.288l.058.23-.058.231zm-.991.819h-.115l-.116-.173.058-.23h.115l.115.172.116.058-.173.173zm-.732.79l-.115-.058-.23.057.057-.173.23-.115h.115l-.057.288zm.962 1.78h-.115l-.403-.46h.057l.23.057.174.173.057.23zm-15.624.847h-.115l.172-.403.173-.058.115.058-.23.346-.115.057zm16.212.876l-.115-.057v-.404l.173-.057.057.288-.115.23zm.991-.028l-.23-.058-.058-.23v-.173l.173.115.115.346zm-16.212-.058l-.23-.115v-.23h.288l.115.114-.058.173-.115.058zm-1.164 1.098v-.268l.403-.4v-.18h.115l.058.09-.23.401-.346.357zm17.52 1.415h-.115l-.173-.173-.23.173-.115-.058.115-.173.346-.057.23.115v.058l-.058.115zm-1.192 1.925l-.173-.173.345-.576.116.057-.23.576-.058.116zm-1.436-.173l-.46-.115.057-.23.288-.058.173.115v.115l-.058.173zm-1.896 3.331l-.173-.057-.057-.058.115-.173.23.058.116.173-.23.057zM7.144 37.056l-.115-.058v-.115l.23-.23h.115v.23l-.23.173zm16.126.144l-.115-.058v-.173l.115-.115-.058-.288.173-.057.058.403-.058.057-.115.23z" mask="url(#iv0jwj74yb)"/>
                            <path fill="#573912" fill-rule="nonzero" d="M-.521 38.125l.065-.064H.912l.457-.192.325-.257.13-.32.066-1.41.065-.128v-8.525L1.89 27.1v-3.718l.065-.128.065-1.474-.13-1.09-.13-.256.195-.77.065-.833.196-.256.782-.192 1.76.128.325-.128h1.043l.065.064h.522l.13.064 1.238-.128.717.192.26.32v1.026l.066.128-.065 1.09.065.513-.065.128v.769l.065.128-.13 1.09.13.192v.897l.391.129-.13.192-.261.064.065.384-.13.45v.512l.13.256-.13.385.13.32v.577l-.065.128v2.18l.065.064v1.666l-.13.128v.77l.065.128v.833l-.065.128v1.218l.065.128v1.538l.391.834.456.192.391-.064h1.63l.13.064h.521l.13.064h1.695l.652-.32-.066.256.261.064.326-.128 1.238.064.717-.513.065-1.09-.065-.128.13-.961v-.897l-.065-.129v-.897l.13-.256-.065-.77-.065-.128v-.512l.065-.129v-1.987l.066-.512-.13-.705.064-.129v-1.281l-.065-.065v-.897l.065-.128v-.641l-.065-.128v-.513l.065-.128v-2.372l.066-.384-.196-.385.13-.256v-1.218l-.195-.192.13-.385-.13-.384.195-.77v-2.05l-.065-.129v-1.025l.065-.129-.065-1.09.065-.063V11.91l-.065-.128v-4.23l.065-.129v-.512l-.195-.385.13-.64v-3.27l.13-.512v-.77l-.065-.128v-2.82l.066-.128v-.77l-.196-.512.065-.128-.065-1.026-.13-.448-.391-.641.065-.065.456.321.13-.641V-7.19l-.325-1.026-.848-.192h-.586l-.13.064h-1.304l-.13-.064h-1.238l-.522.128-.456-.192-.847.064-.522.128-1.042.064-.522.513-.13.32v.962l.195-.128.196-.32.13.127v.257l-.521.384-.065.193.065.128v1.474l-.065.128v1.41l.195.834-.13.32.13.256v.193l-.195.192v.513l.065.128v.577l-.065.128v1.346l.26.32-.195.193-.065.192.195 1.026-.13.833.13.769-.195.32v2.051l.13.257.13.064-.26.961v.513l.13.192h.13l.066.129-.261.064-.065.512-.26.513-.327.192h-.977l-.587-.128H5.735l-.13.128.195.193.196.064.13.192-.13-.064h-.847l-.13-.449H2.606l-.26-.064-.392-.384-.065-.257.065-1.538.065-.128-.065-.897-.13-.45.13-.32-.195-.256.195-1.218V4.54l-.195-.064-.13.256-.196-.064.326-.512.26-.257-.195-.64v-.706l.065-.128v-.513l.065-.128v-.577l.065-.128L1.89.052l.13-1.474-.065-.128v-.64L1.89-2.32v-1.026l.065-.128v-2.435l-.13-.577.26-.833-.26-.513-.391-.32-.652-.193-1.043-.128-.521.128h-.912l-.13-.064h-.652l-.13.064h-1.956l-.13-.064h-.978l-.521.192-.456.577-.066.77.13.64-.13.897.13 1.603-.064.128v.77l-.066.127v.77l.066.128v1.41l-.066.128.066 1.026-.13.128.13 2.692-.13.32v.513l.064.128v3.013l-.065.128.13 1.474.066.256-.13.705.13.32V13l-.065.128v1.602l-.066.128.066 1.218-.066.513.13.256-.13.32v.642l.066.128v.961l-.066.129v.961l.066.128v1.282l-.066.128v1.218l.13.898-.13.192v1.282l-.065.128.065 1.41.066.128-.066 1.282.13.577-.064 1.538-.066.128v1.731l.13.128v.641l-.195.449.13.32-.13 1.154v1.73l.26.962.327.449.521.192h.587l.13.064 1.369-.064.13-.064h1.043l.586.128H-.52zm14.5-44.22h-.115l-.058-.173.173-.345.173.172-.173.346zm-2.513-.057l-.345-.058.23-.23.23-.116.058.058.115.057-.288.289zm1.522 0l-.058-.116.116-.173.23-.115.058.058-.116.23-.23.116zm-1.435 1.069h-.23l-.231-.25.057-.398-.057-.2h.345v.1l.289.2.057.199-.23.349zm2.685-.222l-.576-.288.173-.116.461.058-.058.23v.116zm1.378-.03l-.115-.057.057-.173v-.115l.23.058.058.23-.23.058zm-.76.877l-.231-.173-.058-.23.519.057v.058l-.058.173-.173.115zM11.61-3.409l-.23-.115-.173-.288-.115-.058v-.173l.23-.173.173.058-.115.23.115.116.173.115.115.057-.057.173-.116.058zm.444-.23h-.115l.115-.173.173.057.173-.23h.23l-.057.115-.519.23zm.796 1.097l-.142-.23v-.463l.07-.077v-.462l.778-.231.211-.231-.07.385.282.54h.283l.282-.309.07-.154.565.693.071.385-.494-.23h-.565l-.141.076h-.565l.212-.385-.212-.308-.424.924-.211.077zm2.824-1.126l-.23-.23.345-.058.115.115v.115l-.23.058zm-4.265 1.077l-.288-.173.345-.345.116-.23h.172l-.23.23-.115.518zm.905-.029h-.116l-.057-.172.115-.519.173.115-.115.461v.115zm.99.675l-.402-.115.115-.173.23-.058.115.115v.116l-.057.115zM-1.241-.925h-.115v-.115h-.115l.057-.23.23-.346.116.057-.173.634zM12.238 0l-.094-.117-.048-.76-.235-.292v-.409l.047-.116.47.058-.14.117.094.175-.141.234.188.234.047.175.282.292v.117h-.094l-.188-.175-.094.409-.094.058zm2.058-.847L13.72-1.3l-.058-.395.634.677v.17zM10.706.847h-.173l-.288-.322.057-.323v-.484l.173-.484.173-.081.173.161.115.484-.23.081-.23.484v.323l.287-.08-.057.241zM12.169-.28l-.115-.057.058-.23h.288l.115.057-.115.173-.23.057zm-1.521.058l-.173-.058-.058-.172.23-.173.059.057.057.116-.115.23zM15.25.848l-.254-.054-.763-.476-.508.265h-.17l.255-.265.678-.212.254-.106-.085.318.508-.16.085.69zm-16.233 0l-.576-.224.173-.624.173.045.057.356.173.268v.178zm-3.504-.28L-4.833.51V.395l.116-.115h.115l.115.115v.173zm3.948.028L-.596.424-.424.25h.173l-.057.288-.23.057zm14.095.058V.54l.223-.173h.267V.193l.357.115-.09.288-.757.058zm-2.234.79l-.173-.173v-.115l.116.057.23-.115h.23v.115l-.172.173-.23.058zm2.04.115l-.345-.173-.058-.23-.057-.116.172-.057.173.23.115.346zm-2.83-.029l-.23-.173v-.345l.23.115.289-.058.057.058v.346l-.345.057zm3.39-.086h-.116l-.057-.173.115-.173.346.058-.058.172-.23.116zm1.78-.03l-.23-.057v-.115l.173-.115h.115l.115.23-.173.058zm-15.924.059l-.173-.058-.345-.346h.345l.23.115.058.116v.115l-.115.058zm10.051.876l-.23-.346v-.115l.288.115v.23l-.058.116zm4.064.057l-.115-.115.288-.461.115.058-.058.403-.23.115zm-2.744-.086l-.057-.115.115-.173.346-.116.23.23v.116l-.288-.057-.346.115zm-13.21.029l-.23-.058-.115-.288.058-.115.518.172-.115.23-.115.059zm14.519-.03h-.289l-.23-.114.173-.23.346-.059.172.173v.116l-.172.115zm-1.105 1.917h-.113l-.113-.203-.057-.34.17-.338-.226-.474.452-.068.226-.271.17.135v.136l-.34.135h-.056l.113.475-.226.339.056.27-.056.204zm3.704-1.011h-.23l-.231-.116-.115-.288.173-.115.345.058.173.173v.115l-.115.173zm-.991 1.011l-.23-.068-.174-.203.576-1.423h.058l-.058.542-.288.678h.116l.115-.136.115-.068v.61l-.23.068zM-3.87 3.196l-.115-.173.172-.288.116.057.057.058-.057.23-.173.116zm14.633.933l-.288-.345-.058-.23.173-.058.116.173.057.345v.115zm2.254-.201l-.288-.058.115-.173h.634l.057.173-.518.058zm3.331.057l-.115-.115.23-.173.346-.057-.115.23-.346.115zm-3.357.963l-.141-.115-.142-.461h.66l.188.23v.115l-.283-.115-.282.346zm.083.79h-.172l.115-.346.115-.115.173.057.057.173-.288.23zm-1.78 0l-.116-.116.058-.23.173-.115.288.057v.115l-.115.23-.289.058zm3.648 0h-.288l.057-.346-.057-.115h.23l.115.172-.057.288zm-3.25.962l-.452-.173.056-.115-.282-.403.508.23.113.173.226.115-.17.173zm-13.522 0l-.173-.346-.173.058-.23-.288.23-.115.173.115.173.576zm15.609 1.772l-.201-.195-.067-.326v-.13l.268-.261-.134-.26-.134-.066-.134.065-.134-.13.134-.26h-.535l-.134-.196.134-.326.803-.456-.134.39-.2.066.267.652.2.13.335.065.2-.13.268-.391.134-.066v.261l.134.26.133.066-.334.196.067.13.401.065.134.13v.196l-1.204-.26-.334.195.334.521-.267.065zm-.088-1.916V6.44l.288-.23.23-.058h.058l-.23.23-.346.173zm-3.746.029l-.23-.058-.174-.346.116-.057.288.23v.23zM-.28 6.613l-.057-.172.057-.116-.23.058-.173-.115-.057-.115.518-.058v.23l.115.23-.173.058zm.761.876l-.23-.115.057-.23.173-.23.115.172-.115.403zm10.841.087l-.173-.173.173-.403.23-.173.058.058h.116l-.173.172-.23.519zm4.524-.23l-.172-.058-.23.057-.058-.115h.23l.23-.173h.116l-.116.288zm-6.16 0h-.231l-.058-.116v-.115l.692-.058-.288.058-.116.23zm.904.99l-.173-.115.058-.403.115-.057h.058l.115.172-.173.404zm.963-.115l-.346-.23.058-.115h.23l.173.173v.115l-.115.057zm.833.251l-.081-.2-.242-.198-.242.05h-.162l.242-.1-.806.15-.081-.15.403-.25v-.149l.162.05v.25l.161.049h.646l.242.15.08.249-.322.1zm-1.71-.193l-.287-.058v-.115l.172-.173v-.115l.23.115v.23l-.114.116zm-13.67.76l-.173-.057.115-.173.23-.057.058.057v.173l-.23.058zm14.72.059l-.404-.058-.173-.173v-.115l.116-.058.172.058.289.346zm-2.04.115l-.173-.346v-.23l.403-.058.057.058v.345l-.172.173-.116.058zm2.455.76l-.116-.057.173-.288.23-.115.116.057-.403.404zm-16.069-.057l-.115-.058.346-.288.115.058-.058.23-.288.058zm13.873.029h-.346l-.115-.058.057-.346.461.346-.057.058zm-12.15-.03l-.115-.114-.057-.173.173-.058.288.173.057.115-.345.058zm.85 1.099l-.226-.085.282-.593-.113-.254-.226-.085-.056-.17.338-.423.226-.085.283.17-.057.254-.226.085-.056.17.113.338v.339l-.283.339zm16.302-.02l-.181-.23-.363.172-.363-.288h-.242l-.121-.346-.121-.057.181-.058.363.173.242.23.424-.173.242.058.242.288-.303.23zm-17.997-.087l-.056-.173-.283-.345.565-.116.17.058.112.058-.508.518zm18.752.732l-.172-.115-.058-.115.058-.173.288.115.057.115-.173.173zm-2.342 1.917v-.308l-.13-.309-.261-.154-.26.077v.463l-.131.077-.326-.463-.586.231h-.652l-.26-.154-.066.154.13.232-.195.077-.196-.231v-.309l.261-.308v-.154l-.521-.154v-.385l.326-.077.325.231.196.77.26-.23.196.076.065.154.847-.154.326-.154.457.154.39.385-.065.155.066.154-.196.154zm-6.333 0h-.1l.399-.777-.15-.212-.05-.282-.249-.212-.1-.212.698.141.15.212-.299.353.15.141.05.212-.1.283-.399.353zm-2.454-1.07l-.115-.057.115-.346h.116l.172.173-.057.115-.23.115zm-5.7.848l-.288-.058.058-.346.115.058.115.23v.116zm.819.028h-.116l-.115-.115v-.345l.173.115.058.345zm3.346 2.735l-.186-.072-.31-.72v-.217l.496-.072.062-.36-.062-.29.186-.216.558.217.805-.65-.062-.143-.558-.36.062-.29.186-.216.062.217-.062.144.062.072.186-.072.62 1.154-.248.072-.248.144.062-.216-.062-.145-.496.505-.186.072-.062-.144-.495.505-.31.793v.288zm-5.012-2.677l-.23-.115-.173-.346.46-.115.058.058-.115.518zm7.567.058l-.172-.116-.058-.345-.115-.058.23-.173.23.058.058.403-.057.115-.116.116zm6.912 1.772h-.203l-.271-.113-.136-.17-.068-.112-.068.113-.338-.735-.272.057-.135-.057.068-.226.542-.282v-.17l.271.057.136.226-.34.339.34.508.27.226.407.113-.203.226zm3.341-1.012l-.288-.172h-.172v-.173l.172-.173.404.173-.116.345zM-3.158 15.25l-.077-.41-.308-.36h-.154l-.154-.052.308-.462-.231-.051-.154.051-.308-.205.616-.205.385.05.077.309-.154.565.462.41h.308l-.077.206-.154.103-.385.051zm13.918-1.07l-.424-.172-.17.058h-.169l-.423.115-.255-.058.509-.288 1.186-.057-.254.403zm-1.634.058l-.403-.115-.058-.115.23-.288h.231l-.115.23.115.288zm-7.296.905l.23-.518.23-.115.116.46-.23-.057-.346.23zm8.337.954l-.509-.294H9.32v-.148l.283-.294.056-.148-.056-.294.17-.516h.169v.59l.226.662v.442zm-11.438-.867l-.173-.173-.057-.519.345-.115.116.058v.23l-.058.115v.346l-.173.058zM1.445 15l-.598-.058.05-.116.3-.172.298.057h.2l-.05.173-.2.115zm13.266.172L14.654 15l.23-.403v-.115l.115.057v.23l-.288.404zm-4.403 1.772l-.141-.145.047-.871.235.218.047-.146-.141-.653.376-.363.095-.581.14.145.048.436-.094.218-.094-.073-.095.073-.188.726.094.58-.047.073-.047-.072-.188-.145-.047.217.047.29-.047.073zm.542-1.974l-.519-.115.058-.173h.172l.23.173.059.115zm-15.28.173h-.345l-.115-.173v-.172l.173-.058.057-.23.23.633zM4.459 15l-.058-.057-.057-.116.115-.172.288.057.23.23-.518.058zm4.812-.029h-.46l-.231-.115-.058-.115.346-.058.23.058.173.23zm-5.371.058l-.173-.058-.058-.115v-.115l.23-.115.059.23-.058.173zm-2.427.876l-.23-.058-.173-.288.173-.115.173.058.057.115v.288zm.805-.058l-.37-.057-.213-.23.212-.058.636.115v.058l-.106.115-.16.057zm12.492 0l-.115-.057.115-.288.23.115v.115l-.23.115zm-1.752.087l-.058-.346.23-.173.058.058.058.173-.058.23-.23.058zm-12.02.79h-.15l.3-.289.248-.115.25.058.05.115v.115l-.2-.115-.498.23zm12.728.99l-.17-.287.283-.058v-.288l.113-.058.282.173.17.23-.057.116-.282-.115-.113.23-.226.058zm-16.131.03l.058-.116.23-.23-.058-.288-.115-.115h.461l-.058.23-.288.461-.23.058zm14.979.896h-.576l.172-.593.116-1.102.173.17v.593l-.173.424v.338l.288.17zm-14.691-.193h-.115l-.173-.23.115.057.058-.23.173-.058.23.057-.288.404zm-2.628-.058h-.23l.057-.288.23-.058.289.173.057.116-.23-.058-.173.115zm19.949.202h-.094l-.236-.288.095-.115v-.116l-.471.173-.094-.173.094-.057.141.057.141-.23h.283l.14.173-.046.288-.094.057.188.058-.047.173zm-3.91-.144l-.057-.288.288-.173.115.057-.346.404zm-13.782 1.04l-.053-.212.212-.264.265-.053-.053-.16-.106-.052v-.106l.318.106.212.265-.212.211-.212-.053-.159.053-.212.265zm-1.237-.135h-.115l-.116-.173v-.404h.116l.173.23v.231l-.058.116zm16.57 0h-.115v-.058l.057-.519.576.116.173.23v.115l-.288-.115-.403.23zm-1.262.982l-.346-.17h-.115l.115-.677.23.113.23-.113-.057.339-.115.113.23.282-.172.113zm1.406-.28l-.058-.057.058-.23.346.057-.116.173-.23.058zm1.164.087l-.346-.115-.057-.115.288-.115-.173-.116h.288l.058.23-.058.231zm-.991.819h-.115l-.116-.173.058-.23h.115l.115.172.116.058-.173.173zm-.732.79l-.115-.058-.23.057.057-.173.23-.115h.115l-.057.288zm.962 1.78h-.115l-.403-.46h.057l.23.057.174.173.057.23zm-15.624.847h-.115l.172-.403.173-.058.115.058-.23.346-.115.057zm16.212.876l-.115-.057v-.404l.173-.057.057.288-.115.23zm.991-.028l-.23-.058-.058-.23v-.173l.173.115.115.346zm-16.212-.058l-.23-.115v-.23h.288l.115.114-.058.173-.115.058zm-1.164 1.098v-.268l.403-.4v-.18h.115l.058.09-.23.401-.346.357zm17.52 1.415H15l-.173-.173-.23.173-.115-.058.115-.173.346-.057.23.115v.058l-.058.115zm-1.192 1.925l-.173-.173.345-.576.116.057-.23.576-.058.116zm-1.436-.173l-.46-.115.057-.23.288-.058.173.115v.115l-.058.173zm-1.896 3.331l-.173-.057-.057-.058.115-.173.23.058.116.173-.23.057zM-.48 37.056l-.115-.058v-.115l.23-.23h.115v.23l-.23.173zm16.126.144l-.115-.058v-.173l.115-.115-.058-.288.173-.057.058.403-.058.057-.115.23z" mask="url(#iv0jwj74yb)"/>
                        </g>
                    </g>
                </g>
            </g>
        </g>
    </g>
</svg>
