<svg xmlns="http://www.w3.org/2000/svg" xmlns:xlink="http://www.w3.org/1999/xlink" width="32" height="32" viewBox="0 0 32 32">
    <defs>
        <path id="sdaaesan9a" d="M19.09.533c.079.016.156.035.235.044.922.104 1.8.36 2.598.832 2.328 1.378 3.526 3.435 3.542 6.144.021 3.648.01 7.298 0 10.948-.002.46-.025.932-.123 1.38-.62 2.838-2.337 4.654-5.133 5.433-.364.102-.746.138-1.12.205H6.913l-.51-.076c-.085-.014-.17-.03-.254-.048-2.824-.637-4.637-2.35-5.412-5.148-.1-.365-.137-.747-.204-1.12v-12.2l.076-.513c.014-.085.03-.17.048-.253.636-2.83 2.346-4.646 5.138-5.423.364-.1.746-.137 1.118-.205H19.09zM7.55 2.76c-.542.003-1.11.08-1.622.253-1.993.674-3.18 2.404-3.183 4.564-.004 3.635-.01 7.27.01 10.904.003.544.078 1.113.25 1.627.664 1.98 2.373 3.185 4.504 3.192 3.66.013 7.32.008 10.98.001 1.624-.003 2.938-.656 3.901-1.975.62-.85.871-1.818.87-2.863l-.002-2.72V7.608c0-.571-.058-1.135-.252-1.679-.705-1.977-2.405-3.175-4.548-3.179-3.636-.006-7.272-.012-10.907.01zm5.457 3.827c3.535.008 6.436 2.923 6.42 6.451-.015 3.547-2.925 6.45-6.444 6.427-3.545-.023-6.438-2.94-6.408-6.463.03-3.548 2.912-6.422 6.432-6.415zm-.005 2.222c-2.32 0-4.209 1.89-4.21 4.217 0 2.324 1.887 4.216 4.21 4.217 2.318.002 4.208-1.89 4.209-4.217 0-2.324-1.888-4.216-4.21-4.217zm6.73-4.091c.891.024 1.613.768 1.587 1.639-.025.914-.775 1.625-1.68 1.596-.871-.029-1.588-.78-1.565-1.64.024-.904.768-1.62 1.657-1.595z"/>
    </defs>
    <g fill="none" fill-rule="evenodd">
        <g>
            <g>
                <g>
                    <g>
                        <path d="M0 0H32V32H0z" transform="translate(-1245 -39) translate(1245 39)"/>
                        <g transform="translate(-1245 -39) translate(1245 39) translate(2.667 2.667)">
                            <mask id="88vtk1q6sb" fill="#fff">
                                <use xlink:href="#sdaaesan9a"/>
                            </mask>
                            <path fill="#573912" fill-rule="nonzero" d="M14.564 40l.068-.067h1.436l.479-.202.342-.269.137-.336.068-1.48.068-.134v-8.944l-.068-.135v-3.9l.068-.134.069-1.547-.137-1.143-.137-.27.205-.806.069-.874.205-.27.82-.201 1.847.134.341-.134h1.094l.069.067h.547l.137.067 1.299-.134.752.202.273.336v1.076l.069.134-.069 1.143.069.538-.069.135v.807l.069.134-.137 1.144.137.201v.942l.41.134-.137.202-.273.067.068.404-.137.47v.538l.137.27-.137.403.137.336v.605l-.068.135v2.286l.068.068v1.748l-.137.134v.807l.069.135v.874l-.069.135v1.277l.069.135v1.614l.41.874.479.202.41-.067h1.71l.136.067h.547l.137.067h1.778l.683-.336-.068.269.273.067.342-.134 1.3.067.752-.538.068-1.143-.068-.135.136-1.009v-.941l-.068-.135v-.941l.137-.27-.069-.806-.068-.135v-.537l.068-.135v-2.085l.069-.538-.137-.74.068-.134v-1.345l-.068-.067v-.942l.068-.134v-.672l-.068-.135v-.538l.068-.134v-2.489l.069-.403-.205-.404.136-.269v-1.277l-.205-.202.137-.403-.137-.404.205-.807v-2.152l-.068-.134v-1.076l.068-.135-.068-1.143.068-.067v-1.883l-.068-.135V7.923l.068-.135V7.25l-.205-.403.137-.672v-3.43l.137-.538V1.4l-.069-.135v-2.958l.069-.135v-.807l-.205-.538.068-.134-.068-1.076-.137-.471-.41-.673.068-.067.479.336.136-.672v-1.614l-.341-1.076-.89-.202h-.615l-.137.068H30.36l-.137-.068h-1.299l-.547.135-.479-.202-.888.067-.547.135-1.094.067-.547.538-.137.336v1.009l.205-.134.205-.337.137.135v.269l-.547.403-.069.202.069.135v1.546l-.069.135v1.48l.206.873-.137.337.137.269v.201l-.206.202v.538l.069.135v.605l-.069.134v1.412l.274.337-.205.201-.069.202.206 1.076-.137.874.137.807-.206.337v2.151l.137.27.137.067-.274 1.008v.538l.137.202h.137l.068.135-.273.067-.069.538-.273.538-.342.202h-1.026l-.615-.135h-1.23l-.138.135.206.201.205.068.136.201-.136-.067h-.89l-.136-.47h-2.53l-.273-.068-.41-.403-.069-.27.068-1.613.069-.135-.069-.941-.136-.471.136-.336-.205-.27.205-1.277v-.74l-.205-.067-.136.27-.206-.068.342-.538.274-.27-.205-.672v-.74l.068-.134v-.538l.068-.134v-.606l.069-.134-.137-1.076.137-1.547-.069-.134V-2.3l-.068-.134V-3.51l.068-.135v-2.555l-.136-.605.273-.874-.273-.538-.41-.337-.684-.201-1.094-.135-.547.135h-.958l-.136-.068h-.684l-.137.068h-2.051l-.137-.068H9.162l-.547.202-.478.605-.069.807.137.673-.137.941.137 1.681-.068.135v.807l-.069.134v.807l.069.135v1.48l-.069.134.069 1.076L8 .929l.137 2.825L8 4.09v.538l.068.134v3.161L8 8.057l.137 1.547.068.27-.137.739.137.336v2.69l-.068.134v1.682l-.069.134.069 1.278-.069.538.137.269-.137.336v.673l.069.134v1.009l-.069.134v1.009l.069.134v1.345l-.069.135v1.278l.137.941-.137.202v1.345L8 26.483l.068 1.48.069.134-.069 1.345.137.605-.068 1.614-.069.135v1.815l.137.135v.672L8 34.89l.137.336L8 36.435v1.817l.274 1.008.341.471.547.202h.616l.137.067 1.435-.067.137-.067h1.094l.616.134h1.367zM29.778-6.395h-.121l-.06-.181.18-.363.182.182-.181.362zm-2.637-.06l-.362-.06.241-.242.242-.121.06.06.122.06-.303.303zm1.597 0l-.06-.121.12-.181.242-.121.06.06-.12.242-.242.12zm-1.506 1.122h-.242l-.242-.262.06-.418-.06-.21h.363v.105l.302.21.06.209-.241.366zm2.818-.233l-.605-.302.182-.121.483.06-.06.242v.12zm1.445-.03l-.12-.06.06-.182v-.121l.241.06.06.242-.24.06zm-.798.919l-.242-.182-.06-.241.544.06v.06l-.06.182-.182.12zm-3.405 1.1l-.241-.12L26.869-4l-.12-.06v-.182l.241-.181.182.06-.121.242.12.121.182.12.12.061-.06.182-.12.06zm.466-.242h-.12l.12-.181.182.06.18-.241h.243l-.06.12-.545.242zm.835 1.152l-.149-.242v-.485l.075-.08v-.486l.814-.242.223-.242-.075.404.297.565h.296l.296-.323.074-.162.593.728.074.404-.518-.243H30l-.148.081h-.593l.222-.404-.222-.323-.444.97-.222.08zm2.963-1.182l-.242-.242.362-.06.121.12v.122l-.241.06zm-4.475 1.13l-.302-.18.362-.363.121-.242h.182l-.242.242-.121.544zm.95-.03h-.122l-.06-.18.12-.545.182.121-.12.484v.12zm1.04.708l-.424-.12.121-.182.242-.06.12.12v.121l-.06.121zM13.807-.97h-.12v-.12h-.122l.06-.242.242-.363.121.06-.181.665zM27.951 0l-.1-.123-.049-.797-.246-.306v-.43l.049-.122.494.062-.148.122.098.184-.148.245.198.245.05.184.295.307v.122h-.098l-.198-.183-.099.429-.098.061zm2.16-.889l-.605-.474-.06-.415.664.711v.178zM26.342.89h-.181L25.86.55l.06-.338v-.508l.181-.508.182-.085.181.17.12.507-.24.085-.243.508V.72l.303-.085-.06.254zM27.88-.293l-.12-.06.06-.243h.302l.12.06-.12.182-.242.06zm-1.596.06l-.182-.06-.06-.182.242-.181.06.06.06.121-.12.242zM31.11.89l-.267-.056-.8-.5-.533.278h-.178L29.6.333l.711-.222.267-.111-.09.333.534-.166.09.722zm-17.031 0l-.604-.234.18-.655.182.047.06.374.182.28V.89zM10.404.596l-.363-.06V.413l.12-.12h.122l.12.12v.182zm4.142.03l-.06-.182.18-.18h.182l-.06.301-.242.06zm14.787.06v-.12l.234-.182h.281V.203l.374.12-.093.303-.796.06zm-2.343.829l-.181-.182v-.12l.12.06.243-.121h.241v.12l-.181.182-.242.06zm2.14.12l-.362-.18-.06-.243-.06-.12.18-.06.182.24.12.364zm-2.968-.03l-.242-.181v-.363l.242.121.302-.06.06.06v.363l-.362.06zm3.555-.09h-.12l-.061-.182.12-.181.364.06-.06.182-.243.12zm1.869-.03l-.242-.061v-.12l.181-.122h.121l.121.242-.181.06zm-16.708.06l-.181-.06-.363-.363h.363l.242.12.06.122v.12l-.12.06zm10.546.919l-.242-.363v-.12l.302.12v.242l-.06.121zm4.263.06l-.12-.12.301-.484.121.06-.06.424-.242.12zm-2.878-.09l-.06-.121.12-.181.363-.121.242.241v.121l-.302-.06-.363.12zm-13.86.03l-.241-.06-.121-.303.06-.12.544.18-.12.243-.122.06zm15.232-.03h-.302l-.242-.121.182-.242.362-.06.182.181v.12l-.182.122zm-1.159 2.01h-.118l-.119-.213-.06-.355.179-.356-.237-.498.474-.07.237-.285.178.142v.142l-.356.142h-.06l.12.498-.238.356.06.284-.06.213zm3.886-1.06h-.241l-.242-.122-.121-.302.181-.12.363.06.181.18v.122l-.12.181zm-1.04 1.06l-.241-.07-.182-.214.605-1.493h.06l-.06.569-.302.71h.12l.121-.142.121-.07v.64l-.242.07zM11.051 3.353l-.121-.181.181-.303.121.06.06.061-.06.242-.181.12zm15.353.98L26.1 3.97l-.06-.242.181-.06.121.18.06.364v.12zm2.364-.212l-.302-.06.12-.182h.666l.06.181-.544.06zm3.495.06l-.12-.12.241-.182.363-.06-.121.241-.363.121zm-3.522 1.01l-.148-.12-.149-.484h.692l.197.241v.121l-.296-.12-.296.362zm.087.829h-.18l.12-.363.12-.121.182.06.06.182-.302.242zm-1.868 0l-.12-.121.06-.242.18-.121.303.06v.121l-.12.242-.303.06zm3.828 0h-.303l.06-.363-.06-.121h.242l.121.181-.06.303zm-3.41 1.01l-.474-.182.059-.12-.296-.424.533.242.119.181.237.121-.178.181zm-14.187 0l-.181-.363-.182.06-.241-.302.241-.121.182.12.181.605zm16.376 1.859l-.21-.205-.07-.342v-.137l.28-.273-.14-.274-.14-.068-.14.068-.141-.137.14-.273h-.561l-.14-.205.14-.342.842-.479-.14.41-.211.069.28.684.211.136.351.069.21-.137.281-.41.14-.069v.274l.141.273.14.069-.35.205.07.137.42.068.141.137v.205l-1.263-.274-.35.206.35.547-.28.068zm-.091-2.01v-.122l.302-.241.242-.06h.06l-.242.24-.362.182zm-3.931.03l-.242-.061-.181-.363.12-.06.303.242v.241zm-10.727.03l-.06-.182.06-.12-.242.06-.181-.121-.06-.12.543-.061v.241l.121.242-.181.06zm.798.919l-.242-.121.06-.242.182-.242.12.182-.12.423zm11.374.09l-.181-.18.181-.424.242-.181.06.06h.121l-.181.181-.242.544zm4.747-.241l-.181-.06-.242.06-.06-.121h.241l.242-.182h.12l-.12.303zm-6.464 0h-.242l-.06-.121v-.121l.725-.06-.302.06-.121.242zm.95 1.04l-.182-.121.06-.423.121-.06h.06l.122.18-.182.424zm1.009-.121l-.363-.242.06-.12h.243l.18.18v.121l-.12.06zm.874.263l-.085-.21-.254-.208-.254.052h-.17l.255-.105-.847.157-.084-.157.423-.261V8l.17.052v.262l.169.052h.677l.254.157.084.261-.338.105zm-1.793-.203l-.302-.06v-.121l.181-.181v-.121l.242.12v.242l-.121.121zm-14.343.798l-.182-.06.121-.181.242-.06.06.06v.181l-.241.06zm15.443.06l-.423-.06-.181-.18v-.122l.12-.06.182.06.302.363zm-2.14.122l-.181-.363v-.242l.423-.06.06.06v.363l-.181.181-.121.06zm2.576.798l-.121-.06.181-.303.242-.12.121.06-.423.423zm-16.859-.06l-.12-.06.362-.303.12.06-.06.242-.302.06zm14.555.03h-.363l-.12-.06.06-.363.483.362-.06.06zm-12.747-.03l-.12-.121-.061-.182.181-.06.302.181.06.121-.362.06zm.89 1.152l-.236-.09.296-.622-.118-.266-.237-.09-.06-.177.356-.444.237-.09.296.179-.059.266-.237.09-.06.177.12.355v.356l-.297.356zm17.106-.022l-.19-.242-.382.182-.38-.302h-.255l-.127-.363-.127-.06.19-.061.382.181.254.242.444-.181.254.06.254.302-.317.242zm-18.883-.09l-.06-.182-.295-.362.592-.121.178.06.118.06-.533.545zm19.675.768l-.182-.121-.06-.121.06-.182.303.121.06.121-.181.182zm-2.458 2.01V13.9l-.137-.323-.273-.162-.274.08v.486l-.136.08-.342-.484-.616.242h-.683l-.274-.161-.068.161.137.243-.206.08-.205-.242v-.323l.274-.323v-.162l-.547-.162v-.404l.342-.08.342.242.205.808.273-.242.205.08.069.162.889-.162.341-.161.48.161.41.404-.069.162.068.162-.205.161zm-6.644 0h-.105l.418-.815-.156-.222-.053-.296-.261-.222-.105-.223.732.149.157.222-.314.37.157.148.053.223-.105.296-.418.37zM19.909 13.1l-.12-.06.12-.363h.121l.182.182-.06.12-.243.121zm-5.98.89l-.302-.061.06-.363.121.06.12.242v.121zm.859.03h-.121l-.121-.121v-.363l.181.12.06.364zm3.51 2.869l-.195-.076-.325-.756v-.227l.52-.076.065-.378-.065-.303.195-.227.586.227.845-.68-.065-.152-.585-.378.065-.303.195-.227.065.227-.065.152.065.075.195-.075.65 1.21-.26.076-.26.15.065-.226-.065-.151-.52.53-.195.075-.065-.151-.52.53-.326.831v.303zM13.04 14.08l-.242-.12-.181-.364.483-.12.06.06-.12.544zm7.94.06l-.182-.12-.06-.363-.121-.06.242-.182.241.06.06.424-.06.12-.12.121zM28.23 16h-.213l-.285-.119-.142-.177-.071-.119-.071.119-.356-.77-.284.059-.142-.06.07-.237.57-.296v-.178l.284.06.142.237-.355.355.355.533.285.237.426.119-.213.237zm3.506-1.061l-.302-.182h-.182v-.181l.182-.181.423.181-.121.363zM11.798 16l-.08-.431-.324-.377h-.162l-.161-.054.323-.485-.242-.054-.162.054-.323-.215.646-.216.404.054.081.323-.162.593.485.43h.323l-.08.216-.162.108-.404.054zM26.4 14.878l-.444-.181-.178.06H25.6l-.444.121-.267-.06.533-.302 1.245-.06-.267.422zm-1.714.06l-.423-.12-.06-.121.241-.302h.242l-.12.241.12.303zm-7.655.95l.242-.544.242-.12.12.483-.241-.06-.363.241zm8.747 1l-.534-.308h-.355v-.155l.296-.31.06-.154-.06-.309.178-.54h.178v.617l.237.696v.464zm-12-.91l-.182-.18-.06-.545.363-.12.12.06v.242l-.06.12v.363l-.181.06zm2.85-.241l-.628-.06.052-.121.314-.182.314.06h.209l-.052.182-.21.12zm13.918.181l-.06-.181.241-.423v-.121l.121.06v.242l-.302.423zm-4.62 1.86l-.148-.153.05-.914.246.229.05-.153-.149-.685.395-.381.1-.61.147.152.05.458-.1.228-.098-.076-.099.076-.197.762.099.61-.05.076-.05-.076-.197-.153-.05.229.05.305-.05.076zm.568-2.071l-.544-.121.06-.182h.182l.242.182.06.12zm-16.03.181h-.363l-.12-.181v-.182l.18-.06.061-.242.242.665zm9.324-.151l-.06-.06-.06-.121.12-.182.303.06.241.242-.544.06zm5.05-.03h-.484l-.242-.121-.06-.121.362-.06.242.06.181.242zm-5.636.06l-.182-.06-.06-.121v-.121l.242-.121.06.242-.06.181zm-2.546.92l-.242-.061-.181-.302.181-.121.182.06.06.121v.302zm.844-.061l-.389-.06-.222-.242.222-.06.667.12v.06l-.111.121-.167.06zm13.106 0l-.12-.06.12-.303.242.121v.12l-.242.122zm-1.838.09l-.06-.362.241-.182.06.06.061.182-.06.242-.242.06zm-12.611.829H16l.314-.302.261-.121.262.06.052.121v.121l-.21-.12-.522.24zm13.354 1.04l-.178-.302.297-.06v-.303l.118-.06.296.18.178.243-.059.12-.296-.12-.119.241-.237.06zm-16.924.03l.06-.12.242-.243-.06-.302-.121-.12h.483l-.06.241-.303.484-.241.06zm15.715.94h-.604l.181-.622.121-1.155.181.178v.622l-.181.444v.356l.302.178zm-15.413-.202h-.121l-.181-.242.12.06.061-.241.181-.06.242.06-.302.423zm-2.757-.06H9.89l.06-.303.242-.06.302.181.06.121-.241-.06-.181.12zm20.93.211h-.099l-.247-.302.099-.121v-.121l-.494.181-.099-.181.099-.06.148.06.148-.242h.297l.148.182-.05.302-.098.06.197.06-.05.182zm-4.102-.151l-.06-.302.302-.182.12.06-.362.424zM12.5 20.444l-.056-.222.223-.278.277-.055-.055-.167-.111-.055v-.111l.333.11.222.278-.222.223-.222-.056-.167.056-.222.277zm-1.298-.142h-.121l-.121-.181v-.423h.12l.182.242v.241l-.06.121zm17.385 0h-.121v-.06l.06-.544.605.12.181.242v.121l-.302-.12-.423.241zm-1.325 1.031l-.362-.177h-.121l.12-.712.242.119.242-.119-.06.356-.121.119.242.296-.182.118zm1.476-.293l-.06-.06.06-.242.362.06-.12.182-.242.06zm1.221.09l-.363-.12-.06-.121.302-.121-.181-.12h.302l.06.24-.06.243zm-1.04.86h-.12l-.122-.182.06-.242h.122l.12.182.121.06-.18.181zm-.768.828l-.12-.06-.243.06.06-.182.243-.12h.12l-.06.302zm1.01 1.868h-.121l-.423-.483h.06l.242.06.181.181.06.242zm-16.393.89h-.12l.18-.424.182-.06.12.06-.241.363-.121.06zm17.01.918l-.121-.06v-.423l.181-.06.06.301-.12.242zm1.04-.03l-.242-.06-.06-.242v-.182l.18.121.122.363zm-17.01-.06l-.242-.121v-.242h.302l.121.12-.06.182-.121.06zm-1.221 1.152v-.281l.423-.421v-.187h.12l.061.093-.242.421-.362.375zm18.382 1.484h-.121l-.181-.181-.242.181-.121-.06.12-.182.364-.06.241.12v.061l-.06.121zm-1.252 2.02l-.181-.182.363-.604.12.06-.241.605-.06.12zm-1.505-.182l-.484-.12.06-.242.303-.06.181.12v.12l-.06.182zm-1.99 3.495l-.181-.06-.06-.06.12-.182.242.06.121.182-.242.06zm-11.616 4.505l-.12-.06v-.121l.241-.242h.121v.242l-.242.181zm16.92.151l-.122-.06v-.181l.121-.121-.06-.303.181-.06.06.423-.06.06-.12.242z" mask="url(#88vtk1q6sb)"/>
                            <path fill="#573912" fill-rule="nonzero" d="M6.564 40l.068-.067h1.436l.479-.202.342-.269.137-.336.068-1.48.068-.134v-8.944l-.068-.135v-3.9l.068-.134.069-1.547-.137-1.143-.137-.27.205-.806.069-.874.205-.27.82-.201 1.847.134.341-.134h1.094l.069.067h.547l.137.067 1.299-.134.752.202.273.336v1.076l.069.134-.069 1.143.069.538-.069.135v.807l.069.134-.137 1.144.137.201v.942l.41.134-.137.202-.273.067.068.404-.137.47v.538l.137.27-.137.403.137.336v.605l-.068.135v2.286l.068.068v1.748l-.137.134v.807l.069.135v.874l-.069.135v1.277l.069.135v1.614l.41.874.479.202.41-.067h1.71l.136.067h.547l.137.067h1.778l.683-.336-.068.269.273.067.342-.134 1.3.067.752-.538.068-1.143-.068-.135.136-1.009v-.941l-.068-.135v-.941l.137-.27-.069-.806-.068-.135v-.537l.068-.135v-2.085l.069-.538-.137-.74.068-.134v-1.345l-.068-.067v-.942l.068-.134v-.672l-.068-.135v-.538l.068-.134v-2.489l.069-.403-.205-.404.136-.269v-1.277l-.205-.202.137-.403-.137-.404.205-.807v-2.152l-.068-.134v-1.076l.068-.135-.068-1.143.068-.067v-1.883l-.068-.135V7.923l.068-.135V7.25l-.205-.403.137-.672v-3.43l.137-.538V1.4l-.069-.135v-2.958l.069-.135v-.807l-.205-.538.068-.134-.068-1.076-.137-.471-.41-.673.068-.067.479.336.136-.672v-1.614l-.341-1.076-.89-.202h-.615l-.137.068H22.36l-.137-.068h-1.299l-.547.135-.479-.202-.888.067-.547.135-1.094.067-.547.538-.137.336v1.009l.205-.134.205-.337.137.135v.269l-.547.403-.069.202.069.135v1.546l-.069.135v1.48l.206.873-.137.337.137.269v.201l-.206.202v.538l.069.135v.605l-.069.134v1.412l.274.337-.205.201-.069.202.206 1.076-.137.874.137.807-.206.337v2.151l.137.27.137.067-.274 1.008v.538l.137.202h.137l.068.135-.273.067-.069.538-.273.538-.342.202h-1.026l-.615-.135h-1.23l-.138.135.206.201.205.068.136.201-.136-.067h-.89l-.136-.47h-2.53l-.273-.068-.41-.403-.069-.27.068-1.613.069-.135-.069-.941-.136-.471.136-.336-.205-.27.205-1.277v-.74l-.205-.067-.136.27-.206-.068.342-.538.274-.27-.205-.672v-.74l.068-.134v-.538l.068-.134v-.606l.069-.134L9.094.055l.137-1.547-.069-.134V-2.3l-.068-.134V-3.51l.068-.135v-2.555l-.136-.605.273-.874-.273-.538-.41-.337-.684-.201-1.094-.135-.547.135h-.958l-.136-.068h-.684l-.137.068H2.325l-.137-.068H1.162l-.547.202-.478.605-.069.807.137.673-.137.941.137 1.681-.068.135v.807l-.069.134v.807l.069.135v1.48l-.069.134L.137.795 0 .929l.137 2.825L0 4.09v.538l.068.134v3.161L0 8.057l.137 1.547.068.27-.137.739.137.336v2.69l-.068.134v1.682l-.069.134.069 1.278-.069.538.137.269-.137.336v.673l.069.134v1.009l-.069.134v1.009l.069.134v1.345l-.069.135v1.278l.137.941-.137.202v1.345L0 26.483l.068 1.48.069.134-.069 1.345.137.605-.068 1.614-.069.135v1.815l.137.135v.672L0 34.89l.137.336L0 36.435v1.817l.274 1.008.341.471.547.202h.616l.137.067 1.435-.067.137-.067h1.094l.616.134h1.367zM21.778-6.395h-.121l-.06-.181.18-.363.182.182-.181.362zm-2.637-.06l-.362-.06.241-.242.242-.121.06.06.122.06-.303.303zm1.597 0l-.06-.121.12-.181.242-.121.06.06-.12.242-.242.12zm-1.506 1.122h-.242l-.242-.262.06-.418-.06-.21h.363v.105l.302.21.06.209-.241.366zm2.818-.233l-.605-.302.182-.121.483.06-.06.242v.12zm1.445-.03l-.12-.06.06-.182v-.121l.241.06.06.242-.24.06zm-.798.919l-.242-.182-.06-.241.544.06v.06l-.06.182-.182.12zm-3.405 1.1l-.241-.12L18.869-4l-.12-.06v-.182l.241-.181.182.06-.121.242.12.121.182.12.12.061-.06.182-.12.06zm.466-.242h-.12l.12-.181.182.06.18-.241h.243l-.06.12-.545.242zm.835 1.152l-.149-.242v-.485l.075-.08v-.486l.814-.242.223-.242-.075.404.297.565h.296l.296-.323.074-.162.593.728.074.404-.518-.243H22l-.148.081h-.593l.222-.404-.222-.323-.444.97-.222.08zm2.963-1.182l-.242-.242.362-.06.121.12v.122l-.241.06zm-4.475 1.13l-.302-.18.362-.363.121-.242h.182l-.242.242-.121.544zm.95-.03h-.122l-.06-.18.12-.545.182.121-.12.484v.12zm1.04.708l-.424-.12.121-.182.242-.06.12.12v.121l-.06.121zM5.807-.97h-.12v-.12h-.122l.06-.242.242-.363.121.06-.181.665zM19.951 0l-.1-.123-.049-.797-.246-.306v-.43l.049-.122.494.062-.148.122.098.184-.148.245.198.245.05.184.295.307v.122h-.098l-.198-.183-.099.429-.098.061zm2.16-.889l-.605-.474-.06-.415.664.711v.178zM18.342.89h-.181L17.86.55l.06-.338v-.508l.181-.508.182-.085.181.17.12.507-.24.085-.243.508V.72l.303-.085-.06.254zM19.88-.293l-.12-.06.06-.243h.302l.12.06-.12.182-.242.06zm-1.596.06l-.182-.06-.06-.182.242-.181.06.06.06.121-.12.242zM23.11.89l-.267-.056-.8-.5-.533.278h-.178L21.6.333l.711-.222.267-.111-.09.333.534-.166.09.722zM6.08.889L5.476.655 5.656 0l.182.047.06.374.182.28V.89zM2.404.596L2.04.536V.413l.12-.12h.122l.12.12v.182zm4.142.03l-.06-.182.18-.18h.182l-.06.301-.242.06zm14.787.06v-.12l.234-.182h.281V.203l.374.12-.093.303-.796.06zm-2.343.829l-.181-.182v-.12l.12.06.243-.121h.241v.12l-.181.182-.242.06zm2.14.12l-.362-.18-.06-.243-.06-.12.18-.06.182.24.12.364zm-2.968-.03l-.242-.181v-.363l.242.121.302-.06.06.06v.363l-.362.06zm3.555-.09h-.12l-.061-.182.12-.181.364.06-.06.182-.243.12zm1.869-.03l-.242-.061v-.12l.181-.122h.121l.121.242-.181.06zm-16.708.06l-.181-.06-.363-.363h.363l.242.12.06.122v.12l-.12.06zm10.546.919l-.242-.363v-.12l.302.12v.242l-.06.121zm4.263.06l-.12-.12.301-.484.121.06-.06.424-.242.12zm-2.878-.09l-.06-.121.12-.181.363-.121.242.241v.121l-.302-.06-.363.12zm-13.86.03l-.241-.06-.121-.303.06-.12.544.18-.12.243-.122.06zm15.232-.03h-.302l-.242-.121.182-.242.362-.06.182.181v.12l-.182.122zm-1.159 2.01h-.118l-.119-.213-.06-.355.179-.356-.237-.498.474-.07.237-.285.178.142v.142l-.356.142h-.06l.12.498-.238.356.06.284-.06.213zm3.886-1.06h-.241l-.242-.122-.121-.302.181-.12.363.06.181.18v.122l-.12.181zm-1.04 1.06l-.241-.07-.182-.214.605-1.493h.06l-.06.569-.302.71h.12l.121-.142.121-.07v.64l-.242.07zM3.051 3.353l-.121-.181.181-.303.121.06.06.061-.06.242-.181.12zm15.353.98L18.1 3.97l-.06-.242.181-.06.121.18.06.364v.12zm2.364-.212l-.302-.06.12-.182h.666l.06.181-.544.06zm3.495.06l-.12-.12.241-.182.363-.06-.121.241-.363.121zm-3.522 1.01l-.148-.12-.149-.484h.692l.197.241v.121l-.296-.12-.296.362zm.087.829h-.18l.12-.363.12-.121.182.06.06.182-.302.242zm-1.868 0l-.12-.121.06-.242.18-.121.303.06v.121l-.12.242-.303.06zm3.828 0h-.303l.06-.363-.06-.121h.242l.121.181-.06.303zm-3.41 1.01l-.474-.182.059-.12-.296-.424.533.242.119.181.237.121-.178.181zm-14.187 0l-.181-.363-.182.06-.241-.302.241-.121.182.12.181.605zm16.376 1.859l-.21-.205-.07-.342v-.137l.28-.273-.14-.274-.14-.068-.14.068-.141-.137.14-.273h-.561l-.14-.205.14-.342.842-.479-.14.41-.211.069.28.684.211.136.351.069.21-.137.281-.41.14-.069v.274l.141.273.14.069-.35.205.07.137.42.068.141.137v.205l-1.263-.274-.35.206.35.547-.28.068zm-.091-2.01v-.122l.302-.241.242-.06h.06l-.242.24-.362.182zm-3.931.03l-.242-.061-.181-.363.12-.06.303.242v.241zm-10.727.03l-.06-.182.06-.12-.242.06-.181-.121-.06-.12.543-.061v.241L7 6.878l-.181.06zm.798.919l-.242-.121.06-.242.182-.242.12.182-.12.423zm11.374.09l-.181-.18.181-.424.242-.181.06.06h.121l-.181.181-.242.544zm4.747-.241l-.181-.06-.242.06-.06-.121h.241l.242-.182h.12l-.12.303zm-6.464 0h-.242l-.06-.121v-.121l.725-.06-.302.06-.121.242zm.95 1.04l-.182-.121.06-.423.121-.06h.06l.122.18-.182.424zm1.009-.121l-.363-.242.06-.12h.243l.18.18v.121l-.12.06zm.874.263l-.085-.21-.254-.208-.254.052h-.17l.255-.105-.847.157-.084-.157.423-.261V8l.17.052v.262l.169.052h.677l.254.157.084.261-.338.105zm-1.793-.203l-.302-.06v-.121l.181-.181v-.121l.242.12v.242l-.121.121zM3.97 9.484l-.182-.06.121-.181.242-.06.06.06v.181l-.241.06zm15.443.06l-.423-.06-.181-.18v-.122l.12-.06.182.06.302.363zm-2.14.122l-.181-.363v-.242l.423-.06.06.06v.363l-.181.181-.121.06zm2.576.798l-.121-.06.181-.303.242-.12.121.06-.423.423zm-16.859-.06l-.12-.06.362-.303.12.06-.06.242-.302.06zm14.555.03h-.363l-.12-.06.06-.363.483.362-.06.06zm-12.747-.03l-.12-.121-.061-.182.181-.06.302.181.06.121-.362.06zm.89 1.152l-.236-.09.296-.622-.118-.266-.237-.09-.06-.177.356-.444.237-.09.296.179-.059.266-.237.09-.06.177.12.355v.356l-.297.356zm17.106-.022l-.19-.242-.382.182-.38-.302h-.255l-.127-.363-.127-.06.19-.061.382.181.254.242.444-.181.254.06.254.302-.317.242zm-18.883-.09l-.06-.182-.295-.362.592-.121.178.06.118.06-.533.545zm19.675.768l-.182-.121-.06-.121.06-.182.303.121.06.121-.181.182zm-2.458 2.01V13.9l-.137-.323-.273-.162-.274.08v.486l-.136.08-.342-.484-.616.242h-.683l-.274-.161-.068.161.137.243-.206.08-.205-.242v-.323l.274-.323v-.162l-.547-.162v-.404l.342-.08.342.242.205.808.273-.242.205.08.069.162.889-.162.341-.161.48.161.41.404-.069.162.068.162-.205.161zm-6.644 0h-.105l.418-.815-.156-.222-.053-.296-.261-.222-.105-.223.732.149.157.222-.314.37.157.148.053.223-.105.296-.418.37zM11.909 13.1l-.12-.06.12-.363h.121l.182.182-.06.12-.243.121zm-5.98.89l-.302-.061.06-.363.121.06.12.242v.121zm.859.03h-.121l-.121-.121v-.363l.181.12.06.364zm3.51 2.869l-.195-.076-.325-.756v-.227l.52-.076.065-.378-.065-.303.195-.227.586.227.845-.68-.065-.152-.585-.378.065-.303.195-.227.065.227-.065.152.065.075.195-.075.65 1.21-.26.076-.26.15.065-.226-.065-.151-.52.53-.195.075-.065-.151-.52.53-.326.831v.303zM5.04 14.08l-.242-.12-.181-.364.483-.12.06.06-.12.544zm7.94.06l-.182-.12-.06-.363-.121-.06.242-.182.241.06.06.424-.06.12-.12.121zM20.23 16h-.213l-.285-.119-.142-.177-.071-.119-.071.119-.356-.77-.284.059-.142-.06.07-.237.57-.296v-.178l.284.06.142.237-.355.355.355.533.285.237.426.119-.213.237zm3.506-1.061l-.302-.182h-.182v-.181l.182-.181.423.181-.121.363zM3.798 16l-.08-.431-.324-.377h-.162l-.161-.054.323-.485-.242-.054-.162.054-.323-.215.646-.216.404.054.081.323-.162.593.485.43h.323l-.08.216-.162.108-.404.054zM18.4 14.878l-.444-.181-.178.06H17.6l-.444.121-.267-.06.533-.302 1.245-.06-.267.422zm-1.714.06l-.423-.12-.06-.121.241-.302h.242l-.12.241.12.303zm-7.655.95l.242-.544.242-.12.12.483-.241-.06-.363.241zm8.747 1l-.534-.308h-.355v-.155l.296-.31.06-.154-.06-.309.178-.54h.178v.617l.237.696v.464zm-12-.91l-.182-.18-.06-.545.363-.12.12.06v.242l-.06.12v.363l-.181.06zm2.85-.241L8 15.677l.052-.121.314-.182.314.06h.209l-.052.182-.21.12zm13.918.181l-.06-.181.241-.423v-.121l.121.06v.242l-.302.423zm-4.62 1.86l-.148-.153.05-.914.246.229.05-.153-.149-.685.395-.381.1-.61.147.152.05.458-.1.228-.098-.076-.099.076-.197.762.099.61-.05.076-.05-.076-.197-.153-.05.229.05.305-.05.076zm.568-2.071l-.544-.121.06-.182h.182l.242.182.06.12zm-16.03.181h-.363l-.12-.181v-.182l.18-.06.061-.242.242.665zm9.324-.151l-.06-.06-.06-.121.12-.182.303.06.241.242-.544.06zm5.05-.03h-.484l-.242-.121-.06-.121.362-.06.242.06.181.242zm-5.636.06l-.182-.06-.06-.121v-.121l.242-.121.06.242-.06.181zm-2.546.92l-.242-.061-.181-.302.181-.121.182.06.06.121v.302zm.844-.061l-.389-.06-.222-.242.222-.06.667.12v.06l-.111.121-.167.06zm13.106 0l-.12-.06.12-.303.242.121v.12l-.242.122zm-1.838.09l-.06-.362.241-.182.06.06.061.182-.06.242-.242.06zm-12.611.829H8l.314-.302.261-.121.262.06.052.121v.121l-.21-.12-.522.24zm13.354 1.04l-.178-.302.297-.06v-.303l.118-.06.296.18.178.243-.059.12-.296-.12-.119.241-.237.06zm-16.924.03l.06-.12.242-.243-.06-.302-.121-.12h.483l-.06.241-.303.484-.241.06zm15.715.94h-.604l.181-.622.121-1.155.181.178v.622l-.181.444v.356l.302.178zM4.89 19.354h-.121l-.181-.242.12.06.061-.241.181-.06.242.06-.302.423zm-2.757-.06H1.89l.06-.303.242-.06.302.181.06.121-.241-.06-.181.12zm20.93.211h-.099l-.247-.302.099-.121v-.121l-.494.181-.099-.181.099-.06.148.06.148-.242h.297l.148.182-.05.302-.098.06.197.06-.05.182zm-4.102-.151l-.06-.302.302-.182.12.06-.362.424zM4.5 20.444l-.056-.222.223-.278.277-.055-.055-.167-.111-.055v-.111l.333.11.222.278-.222.223-.222-.056-.167.056-.222.277zm-1.298-.142H3.08l-.121-.181v-.423h.12l.182.242v.241l-.06.121zm17.385 0h-.121v-.06l.06-.544.605.12.181.242v.121l-.302-.12-.423.241zm-1.325 1.031l-.362-.177h-.121l.12-.712.242.119.242-.119-.06.356-.121.119.242.296-.182.118zm1.476-.293l-.06-.06.06-.242.362.06-.12.182-.242.06zm1.221.09l-.363-.12-.06-.121.302-.121-.181-.12h.302l.06.24-.06.243zm-1.04.86h-.12l-.122-.182.06-.242h.122l.12.182.121.06-.18.181zm-.768.828l-.12-.06-.243.06.06-.182.243-.12h.12l-.06.302zm1.01 1.868h-.121l-.423-.483h.06l.242.06.181.181.06.242zm-16.393.89h-.12l.18-.424.182-.06.12.06-.241.363-.121.06zm17.01.918l-.121-.06v-.423l.181-.06.06.301-.12.242zm1.04-.03l-.242-.06-.06-.242v-.182l.18.121.122.363zm-17.01-.06l-.242-.121v-.242h.302l.121.12-.06.182-.121.06zm-1.221 1.152v-.281l.423-.421v-.187h.12l.061.093-.242.421-.362.375zm18.382 1.484h-.121l-.181-.181-.242.181-.121-.06.12-.182.364-.06.241.12v.061l-.06.121zm-1.252 2.02l-.181-.182.363-.604.12.06-.241.605-.06.12zm-1.505-.182l-.484-.12.06-.242.303-.06.181.12v.12l-.06.182zm-1.99 3.495l-.181-.06-.06-.06.12-.182.242.06.121.182-.242.06zM6.606 38.878l-.12-.06v-.121l.241-.242h.121v.242l-.242.181zm16.92.151l-.122-.06v-.181l.121-.121-.06-.303.181-.06.06.423-.06.06-.12.242z" mask="url(#88vtk1q6sb)"/>
                        </g>
                    </g>
                </g>
            </g>
        </g>
    </g>
</svg>
