<svg width="25" height="25" viewBox="0 0 25 25" fill="none" xmlns="http://www.w3.org/2000/svg">
<mask id="mask0" mask-type="alpha" maskUnits="userSpaceOnUse" x="0" y="0" width="25" height="25">
<path d="M12.5 0C5.5975 0 0 5.5975 0 12.5C0 19.4025 5.5975 25 12.5 25C19.4025 25 25 19.4025 25 12.5C25 5.5975 19.4025 0 12.5 0ZM8.86765 18.8965H5.82333V9.73759H8.86765V18.8965ZM7.34558 8.48694H7.32574C6.30417 8.48694 5.64346 7.7837 5.64346 6.90479C5.64346 6.00605 6.32439 5.32227 7.3658 5.32227C8.40721 5.32227 9.04808 6.00605 9.06792 6.90479C9.06792 7.7837 8.40721 8.48694 7.34558 8.48694ZM19.8448 18.8965H16.8009V13.9967C16.8009 12.7653 16.3601 11.9255 15.2586 11.9255C14.4176 11.9255 13.9168 12.492 13.6967 13.0388C13.6162 13.2345 13.5965 13.508 13.5965 13.7817V18.8965H10.5524C10.5524 18.8965 10.5923 10.5968 10.5524 9.73759H13.5965V11.0344C14.0011 10.4103 14.7249 9.52263 16.3401 9.52263C18.343 9.52263 19.8448 10.8316 19.8448 13.6448V18.8965Z" fill="white"/>
</mask>
<g mask="url(#mask0)">
<path d="M6.38462 45L6.46154 44.9243H8.07692L8.61539 44.6974L9 44.3948L9.15385 44.0165L9.23077 42.3521L9.30769 42.2008V32.1389L9.23077 31.9876V27.5997L9.30769 27.4484L9.38461 25.7084L9.23077 24.4223L9.07692 24.1197L9.30769 23.2118L9.38461 22.2283L9.61539 21.9257L10.5385 21.6988L12.6154 21.8501L13 21.6988H14.2308L14.3077 21.7744H14.9231L15.0769 21.8501L16.5385 21.6988L17.3846 21.9257L17.6923 22.304V23.5144L17.7692 23.6657L17.6923 24.9519L17.7692 25.5571L17.6923 25.7084V26.6162L17.7692 26.7675L17.6154 28.0536L17.7692 28.2806V29.3398L18.2308 29.4911L18.0769 29.718L17.7692 29.7937L17.8462 30.2476L17.6923 30.7772V31.3824L17.8462 31.685L17.6923 32.1389L17.8462 32.5172V33.1981L17.7692 33.3494V35.9216L17.8462 35.9972V37.9642L17.6923 38.1155V39.0234L17.7692 39.1747V40.1582L17.6923 40.3095V41.7469L17.7692 41.8982V43.7139L18.2308 44.6974L18.7692 44.9243L19.2308 44.8487H21.1538L21.3077 44.9243H21.9231L22.0769 45H24.0769L24.8462 44.6217L24.7692 44.9243L25.0769 45L25.4615 44.8487L26.9231 44.9243L27.7692 44.3191L27.8462 43.033L27.7692 42.8817L27.9231 41.7469V40.6878L27.8462 40.5364V39.4773L28 39.1747L27.9231 38.2668L27.8462 38.1155V37.5103L27.9231 37.359V35.0138L28 34.4085L27.8462 33.5763L27.9231 33.425V31.912L27.8462 31.8363V30.7772L27.9231 30.6259V29.8693L27.8462 29.718V29.1128L27.9231 28.9615V26.1623L28 25.7084L27.7692 25.2545L27.9231 24.9519V23.5144L27.6923 23.2875L27.8462 22.8336L27.6923 22.3796L27.9231 21.4718V19.0509L27.8462 18.8996V17.6891L27.9231 17.5378L27.8462 16.2517L27.9231 16.1761V14.0578L27.8462 13.9065V8.91334L27.9231 8.76204V8.15681L27.6923 7.70289L27.8462 6.94635V3.08803L28 2.48281V1.57497L27.9231 1.42366V-1.90509L28 -2.0564V-2.96424L27.7692 -3.56946L27.8462 -3.72077L27.7692 -4.93122L27.6154 -5.4608L27.1538 -6.21733L27.2308 -6.29298L27.7692 -5.91472L27.9231 -6.67125V-8.48693L27.5385 -9.69739L26.5385 -9.92435H25.8462L25.6923 -9.84869H24.1538L24 -9.92435H22.5385L21.9231 -9.77304L21.3846 -10L20.3846 -9.92435L19.7692 -9.77304L18.5385 -9.69739L17.9231 -9.09216L17.7692 -8.71389V-7.57909L18 -7.7304L18.2308 -8.10867L18.3846 -7.95736V-7.65475L17.7692 -7.20083L17.6923 -6.97387L17.7692 -6.82256V-5.08253L17.6923 -4.93122V-3.26685L17.9231 -2.28336L17.7692 -1.90509L17.9231 -1.60248V-1.37552L17.6923 -1.14856V-0.543329L17.7692 -0.392022V0.288858L17.6923 0.440166V2.02889L18 2.40715L17.7692 2.63411L17.6923 2.86107L17.9231 4.07153L17.7692 5.05502L17.9231 5.96286L17.6923 6.34113V8.76204L17.8462 9.06465L18 9.1403L17.6923 10.2751V10.8803L17.8462 11.1073H18L18.0769 11.2586L17.7692 11.3343L17.6923 11.9395L17.3846 12.5447L17 12.7717H15.8462L15.1538 12.6204H13.7692L13.6154 12.7717L13.8462 12.9986L14.0769 13.0743L14.2308 13.3012L14.0769 13.2256H13.0769L12.9231 12.696H10.0769L9.76923 12.6204L9.30769 12.1664L9.23077 11.8638L9.30769 10.0481L9.38461 9.89684L9.30769 8.83769L9.15385 8.30812L9.30769 7.92985L9.07692 7.62724L9.30769 6.18982V5.35763L9.07692 5.28198L8.92308 5.58459L8.69231 5.50894L9.07692 4.90371L9.38461 4.6011L9.15385 3.84457V3.01238L9.23077 2.86107V2.25585L9.30769 2.10454V1.42366L9.38461 1.27235L9.23077 0.0618982L9.38461 -1.67813L9.30769 -1.82944V-2.58597L9.23077 -2.73728V-3.94773L9.30769 -4.09904V-6.97387L9.15385 -7.65475L9.46154 -8.63824L9.15385 -9.24347L8.69231 -9.62173L7.92308 -9.84869L6.69231 -10L6.07692 -9.84869H5L4.84615 -9.92435H4.07692L3.92308 -9.84869H1.61538L1.46154 -9.92435H0.307692L-0.307692 -9.69739L-0.846154 -9.01651L-0.923077 -8.10867L-0.769231 -7.35213L-0.923077 -6.29298L-0.769231 -4.40165L-0.846154 -4.25034V-3.3425L-0.923077 -3.1912V-2.28336L-0.846154 -2.13205V-0.467675L-0.923077 -0.316369L-0.846154 0.894085L-1 1.04539L-0.846154 4.22283L-1 4.6011V5.20633L-0.923077 5.35763V8.91334L-1 9.06465L-0.846154 10.8047L-0.769231 11.1073L-0.923077 11.9395L-0.769231 12.3177V15.3439L-0.846154 15.4952V17.3865L-0.923077 17.5378L-0.846154 18.9752L-0.923077 19.5805L-0.769231 19.8831L-0.923077 20.2613V21.0179L-0.846154 21.1692V22.304L-0.923077 22.4553V23.5901L-0.846154 23.7414V25.2545L-0.923077 25.4058V26.8432L-0.769231 27.9023L-0.923077 28.1293V29.6424L-1 29.7937L-0.923077 31.458L-0.846154 31.6094L-0.923077 33.1224L-0.769231 33.8033L-0.846154 35.619L-0.923077 35.7703V37.8129L-0.769231 37.9642V38.7208L-1 39.2503L-0.846154 39.6286L-1 40.9904V43.033L-0.692308 44.1678L-0.307692 44.6974L0.307692 44.9243H1L1.15385 45L2.76923 44.9243L2.92308 44.8487H4.15385L4.84615 45H6.38462ZM23.5 -7.194H23.364L23.296 -7.398L23.5 -7.806L23.704 -7.602L23.5 -7.194ZM20.534 -7.262L20.126 -7.33L20.398 -7.602L20.67 -7.738L20.738 -7.67L20.874 -7.602L20.534 -7.262ZM22.33 -7.262L22.262 -7.398L22.398 -7.602L22.67 -7.738L22.738 -7.67L22.602 -7.398L22.33 -7.262ZM20.636 -6H20.364L20.092 -6.29412L20.16 -6.76471L20.092 -7H20.5V-6.88235L20.84 -6.64706L20.908 -6.41176L20.636 -6ZM23.806 -6.262L23.126 -6.602L23.33 -6.738L23.874 -6.67L23.806 -6.398V-6.262ZM25.432 -6.296L25.296 -6.364L25.364 -6.568V-6.704L25.636 -6.636L25.704 -6.364L25.432 -6.296ZM24.534 -5.262L24.262 -5.466L24.194 -5.738L24.806 -5.67V-5.602L24.738 -5.398L24.534 -5.262ZM20.704 -4.024L20.432 -4.16L20.228 -4.5L20.092 -4.568V-4.772L20.364 -4.976L20.568 -4.908L20.432 -4.636L20.568 -4.5L20.772 -4.364L20.908 -4.296L20.84 -4.092L20.704 -4.024ZM21.228 -4.296H21.092L21.228 -4.5L21.432 -4.432L21.636 -4.704H21.908L21.84 -4.568L21.228 -4.296ZM22.1667 -3L22 -3.27273V-3.81818L22.0833 -3.90909V-4.45455L23 -4.72727L23.25 -5L23.1667 -4.54545L23.5 -3.90909H23.8333L24.1667 -4.27273L24.25 -4.45455L24.9167 -3.63636L25 -3.18182L24.4167 -3.45455H23.75L23.5833 -3.36364H22.9167L23.1667 -3.81818L22.9167 -4.18182L22.4167 -3.09091L22.1667 -3ZM25.5 -4.33L25.228 -4.602L25.636 -4.67L25.772 -4.534V-4.398L25.5 -4.33ZM20.466 -3.058L20.126 -3.262L20.534 -3.67L20.67 -3.942H20.874L20.602 -3.67L20.466 -3.058ZM21.534 -3.092H21.398L21.33 -3.296L21.466 -3.908L21.67 -3.772L21.534 -3.228V-3.092ZM22.704 -2.296L22.228 -2.432L22.364 -2.636L22.636 -2.704L22.772 -2.568V-2.432L22.704 -2.296ZM5.534 -1.092H5.398V-1.228H5.262L5.33 -1.5L5.602 -1.908L5.738 -1.84L5.534 -1.092ZM21.4444 0L21.3333 -0.137931L21.2778 -1.03448L21 -1.37931V-1.86207L21.0556 -2L21.6111 -1.93103L21.4444 -1.7931L21.5556 -1.58621L21.3889 -1.31034L21.6111 -1.03448L21.6667 -0.827586L22 -0.482759V-0.344828H21.8889L21.6667 -0.551724L21.5556 -0.0689659L21.4444 0ZM23.874 -1L23.194 -1.53333L23.126 -2L23.874 -1.2V-1ZM19.636 1H19.432L19.092 0.619047L19.16 0.238095V-0.333333L19.364 -0.904762L19.568 -1L19.772 -0.809524L19.908 -0.238095L19.636 -0.142858L19.364 0.428572V0.809524L19.704 0.714286L19.636 1ZM21.364 -0.33L21.228 -0.398L21.296 -0.67H21.636L21.772 -0.602L21.636 -0.398L21.364 -0.33ZM19.568 -0.262L19.364 -0.33L19.296 -0.534L19.568 -0.738L19.636 -0.67L19.704 -0.534L19.568 -0.262ZM25 1L24.7 0.9375L23.8 0.375L23.2 0.6875H23L23.3 0.375L24.1 0.125L24.4 0L24.3 0.375L24.9 0.1875L25 1ZM5.84 1L5.16 0.736842L5.364 0L5.568 0.0526314L5.636 0.473684L5.84 0.789474V1ZM1.704 0.67L1.296 0.602V0.466L1.432 0.33H1.568L1.704 0.466V0.67ZM6.364 0.704L6.296 0.5L6.5 0.296H6.704L6.636 0.636L6.364 0.704ZM23 0.772V0.636L23.2632 0.432H23.5789V0.228L24 0.364L23.8947 0.704L23 0.772ZM20.364 1.704L20.16 1.5V1.364L20.296 1.432L20.568 1.296H20.84V1.432L20.636 1.636L20.364 1.704ZM22.772 1.84L22.364 1.636L22.296 1.364L22.228 1.228L22.432 1.16L22.636 1.432L22.772 1.84ZM19.432 1.806L19.16 1.602V1.194L19.432 1.33L19.772 1.262L19.84 1.33V1.738L19.432 1.806ZM23.432 1.704H23.296L23.228 1.5L23.364 1.296L23.772 1.364L23.704 1.568L23.432 1.704ZM25.534 1.67L25.262 1.602V1.466L25.466 1.33H25.602L25.738 1.602L25.534 1.67ZM6.738 1.738L6.534 1.67L6.126 1.262H6.534L6.806 1.398L6.874 1.534V1.67L6.738 1.738ZM18.602 2.772L18.33 2.364V2.228L18.67 2.364V2.636L18.602 2.772ZM23.398 2.84L23.262 2.704L23.602 2.16L23.738 2.228L23.67 2.704L23.398 2.84ZM20.16 2.738L20.092 2.602L20.228 2.398L20.636 2.262L20.908 2.534V2.67L20.568 2.602L20.16 2.738ZM4.568 2.772L4.296 2.704L4.16 2.364L4.228 2.228L4.84 2.432L4.704 2.704L4.568 2.772ZM21.704 2.738H21.364L21.092 2.602L21.296 2.33L21.704 2.262L21.908 2.466V2.602L21.704 2.738ZM20.4 5H20.2667L20.1333 4.76L20.0667 4.36L20.2667 3.96L20 3.4L20.5333 3.32L20.8 3L21 3.16V3.32L20.6 3.48H20.5333L20.6667 4.04L20.4 4.44L20.4667 4.76L20.4 5ZM24.772 3.806H24.5L24.228 3.67L24.092 3.33L24.296 3.194L24.704 3.262L24.908 3.466V3.602L24.772 3.806ZM23.602 5L23.33 4.92L23.126 4.68L23.806 3H23.874L23.806 3.64L23.466 4.44H23.602L23.738 4.28L23.874 4.2V4.92L23.602 5ZM2.432 3.772L2.296 3.568L2.5 3.228L2.636 3.296L2.704 3.364L2.636 3.636L2.432 3.772ZM19.704 4.874L19.364 4.466L19.296 4.194L19.5 4.126L19.636 4.33L19.704 4.738V4.874ZM22.364 4.636L22.024 4.568L22.16 4.364H22.908L22.976 4.568L22.364 4.636ZM26.296 4.704L26.16 4.568L26.432 4.364L26.84 4.296L26.704 4.568L26.296 4.704ZM22.3333 5.84L22.1667 5.704L22 5.16H22.7778L23 5.432V5.568L22.6667 5.432L22.3333 5.84ZM22.432 6.772H22.228L22.364 6.364L22.5 6.228L22.704 6.296L22.772 6.5L22.432 6.772ZM20.33 6.772L20.194 6.636L20.262 6.364L20.466 6.228L20.806 6.296V6.432L20.67 6.704L20.33 6.772ZM24.636 6.772H24.296L24.364 6.364L24.296 6.228H24.568L24.704 6.432L24.636 6.772ZM20.8 7.908L20.2667 7.704L20.3333 7.568L20 7.092L20.6 7.364L20.7333 7.568L21 7.704L20.8 7.908ZM4.84 7.908L4.636 7.5L4.432 7.568L4.16 7.228L4.432 7.092L4.636 7.228L4.84 7.908ZM23.2632 10L23.0263 9.76923L22.9474 9.38461V9.23077L23.2632 8.92308L23.1053 8.61539L22.9474 8.53846L22.7895 8.61539L22.6316 8.46154L22.7895 8.15385H22.1579L22 7.92308L22.1579 7.53846L23.1053 7L22.9474 7.46154L22.7105 7.53846L23.0263 8.30769L23.2632 8.46154L23.6579 8.53846L23.8947 8.38461L24.2105 7.92308L24.3684 7.84615V8.15385L24.5263 8.46154L24.6842 8.53846L24.2895 8.76923L24.3684 8.92308L24.8421 9L25 9.15385V9.38461L23.5789 9.07692L23.1842 9.30769L23.5789 9.92308L23.2632 10ZM23.16 7.738V7.602L23.5 7.33L23.772 7.262H23.84L23.568 7.534L23.16 7.738ZM18.738 7.772L18.466 7.704L18.262 7.296L18.398 7.228L18.738 7.5V7.772ZM6.67 7.806L6.602 7.602L6.67 7.466L6.398 7.534L6.194 7.398L6.126 7.262L6.738 7.194V7.466L6.874 7.738L6.67 7.806ZM7.568 8.84L7.296 8.704L7.364 8.432L7.568 8.16L7.704 8.364L7.568 8.84ZM20.364 8.942L20.16 8.738L20.364 8.262L20.636 8.058L20.704 8.126H20.84L20.636 8.33L20.364 8.942ZM25.704 8.67L25.5 8.602L25.228 8.67L25.16 8.534H25.432L25.704 8.33H25.84L25.704 8.67ZM18.432 8.67H18.16L18.092 8.534V8.398L18.908 8.33L18.568 8.398L18.432 8.67ZM19.5 9.84L19.296 9.704L19.364 9.228L19.5 9.16H19.568L19.704 9.364L19.5 9.84ZM20.636 9.704L20.228 9.432L20.296 9.296H20.568L20.772 9.5V9.636L20.636 9.704ZM21.619 10L21.5238 9.76471L21.2381 9.52941L20.9524 9.58823H20.7619L21.0476 9.47059L20.0952 9.64706L20 9.47059L20.4762 9.17647V9L20.6667 9.05882V9.35294L20.8571 9.41177H21.619L21.9048 9.58823L22 9.88235L21.619 10ZM19.602 9.772L19.262 9.704V9.568L19.466 9.364V9.228L19.738 9.364V9.636L19.602 9.772ZM3.466 10.67L3.262 10.602L3.398 10.398L3.67 10.33L3.738 10.398V10.602L3.466 10.67ZM20.84 10.738L20.364 10.67L20.16 10.466V10.33L20.296 10.262L20.5 10.33L20.84 10.738ZM18.432 10.874L18.228 10.466V10.194L18.704 10.126L18.772 10.194V10.602L18.568 10.806L18.432 10.874ZM21.33 11.772L21.194 11.704L21.398 11.364L21.67 11.228L21.806 11.296L21.33 11.772ZM2.364 11.704L2.228 11.636L2.636 11.296L2.772 11.364L2.704 11.636L2.364 11.704ZM18.738 11.738H18.33L18.194 11.67L18.262 11.262L18.806 11.67L18.738 11.738ZM4.398 11.704L4.262 11.568L4.194 11.364L4.398 11.296L4.738 11.5L4.806 11.636L4.398 11.704ZM5.4 13L5.13333 12.9L5.46667 12.2L5.33333 11.9L5.06667 11.8L5 11.6L5.4 11.1L5.66667 11L6 11.2L5.93333 11.5L5.66667 11.6L5.6 11.8L5.73333 12.2V12.6L5.4 13ZM24.6429 12.976L24.4286 12.704L24 12.908L23.5714 12.568H23.2857L23.1429 12.16L23 12.092L23.2143 12.024L23.6429 12.228L23.9286 12.5L24.4286 12.296L24.7143 12.364L25 12.704L24.6429 12.976ZM3.4 12.874L3.33333 12.67L3 12.262L3.66667 12.126L3.86667 12.194L4 12.262L3.4 12.874ZM25.534 13.738L25.33 13.602L25.262 13.466L25.33 13.262L25.67 13.398L25.738 13.534L25.534 13.738ZM22.7692 16V15.6364L22.6154 15.2727L22.3077 15.0909L22 15.1818V15.7273L21.8462 15.8182L21.4615 15.2727L20.7692 15.5455H20L19.6923 15.3636L19.6154 15.5455L19.7692 15.8182L19.5385 15.9091L19.3077 15.6364V15.2727L19.6154 14.9091V14.7273L19 14.5455V14.0909L19.3846 14L19.7692 14.2727L20 15.1818L20.3077 14.9091L20.5385 15L20.6154 15.1818L21.6154 15L22 14.8182L22.5385 15L23 15.4545L22.9231 15.6364L23 15.8182L22.7692 16ZM15.2941 16H15.1765L15.6471 15.0833L15.4706 14.8333L15.4118 14.5L15.1176 14.25L15 14L15.8235 14.1667L16 14.4167L15.6471 14.8333L15.8235 15L15.8824 15.25L15.7647 15.5833L15.2941 16ZM12.398 14.738L12.262 14.67L12.398 14.262H12.534L12.738 14.466L12.67 14.602L12.398 14.738ZM5.67 15.738L5.33 15.67L5.398 15.262L5.534 15.33L5.67 15.602V15.738ZM6.636 15.772H6.5L6.364 15.636V15.228L6.568 15.364L6.636 15.772ZM10.5854 19L10.3659 18.9149L10 18.0638V17.8085L10.5854 17.7234L10.6585 17.2979L10.5854 16.9574L10.8049 16.7021L11.4634 16.9574L12.4146 16.1915L12.3415 16.0213L11.6829 15.5957L11.7561 15.2553L11.9756 15L12.0488 15.2553L11.9756 15.4255L12.0488 15.5106L12.2683 15.4255L13 16.7872L12.7073 16.8723L12.4146 17.0426L12.4878 16.7872L12.4146 16.617L11.8293 17.2128L11.6098 17.2979L11.5366 17.1277L10.9512 17.7234L10.5854 18.6596V19ZM4.67 15.84L4.398 15.704L4.194 15.296L4.738 15.16L4.806 15.228L4.67 15.84ZM13.602 15.908L13.398 15.772L13.33 15.364L13.194 15.296L13.466 15.092L13.738 15.16L13.806 15.636L13.738 15.772L13.602 15.908ZM21.76 18H21.52L21.2 17.8667L21.04 17.6667L20.96 17.5333L20.88 17.6667L20.48 16.8L20.16 16.8667L20 16.8L20.08 16.5333L20.72 16.2V16L21.04 16.0667L21.2 16.3333L20.8 16.7333L21.2 17.3333L21.52 17.6L22 17.7333L21.76 18ZM25.704 16.806L25.364 16.602H25.16V16.398L25.364 16.194L25.84 16.398L25.704 16.806ZM3.27273 18L3.18182 17.5152L2.81818 17.0909H2.63636L2.45455 17.0303L2.81818 16.4848L2.54545 16.4242L2.36364 16.4848L2 16.2424L2.72727 16L3.18182 16.0606L3.27273 16.4242L3.09091 17.0909L3.63636 17.5758H4L3.90909 17.8182L3.72727 17.9394L3.27273 18ZM19.7 16.738L19.2 16.534L19 16.602H18.8L18.3 16.738L18 16.67L18.6 16.33L20 16.262L19.7 16.738ZM17.772 16.806L17.296 16.67L17.228 16.534L17.5 16.194H17.772L17.636 16.466L17.772 16.806ZM9.16 17.874L9.432 17.262L9.704 17.126L9.84 17.67L9.568 17.602L9.16 17.874ZM19 19L18.4 18.6522H18V18.4783L18.3333 18.1304L18.4 17.9565L18.3333 17.6087L18.5333 17H18.7333V17.6957L19 18.4783V19ZM5.5 17.976L5.296 17.772L5.228 17.16L5.636 17.024L5.772 17.092V17.364L5.704 17.5V17.908L5.5 17.976ZM8.70588 17.704L8 17.636L8.05882 17.5L8.41177 17.296L8.76471 17.364H9L8.94118 17.568L8.70588 17.704ZM24.364 17.908L24.296 17.704L24.568 17.228V17.092L24.704 17.16V17.432L24.364 17.908ZM19.1667 20L19 19.8286L19.0556 18.8L19.3333 19.0571L19.3889 18.8857L19.2222 18.1143L19.6667 17.6857L19.7778 17L19.9444 17.1714L20 17.6857L19.8889 17.9429L19.7778 17.8571L19.6667 17.9429L19.4444 18.8L19.5556 19.4857L19.5 19.5714L19.4444 19.4857L19.2222 19.3143L19.1667 19.5714L19.2222 19.9143L19.1667 20ZM19.806 17.67L19.194 17.534L19.262 17.33H19.466L19.738 17.534L19.806 17.67ZM1.772 17.874H1.364L1.228 17.67V17.466L1.432 17.398L1.5 17.126L1.772 17.874ZM12.262 17.704L12.194 17.636L12.126 17.5L12.262 17.296L12.602 17.364L12.874 17.636L12.262 17.704ZM17.942 17.67H17.398L17.126 17.534L17.058 17.398L17.466 17.33L17.738 17.398L17.942 17.67ZM11.602 17.738L11.398 17.67L11.33 17.534V17.398L11.602 17.262L11.67 17.534L11.602 17.738ZM8.738 18.772L8.466 18.704L8.262 18.364L8.466 18.228L8.67 18.296L8.738 18.432V18.772ZM9.6875 18.704L9.25 18.636L9 18.364L9.25 18.296L10 18.432V18.5L9.875 18.636L9.6875 18.704ZM24.432 18.704L24.296 18.636L24.432 18.296L24.704 18.432V18.568L24.432 18.704ZM22.364 18.806L22.296 18.398L22.568 18.194L22.636 18.262L22.704 18.466L22.636 18.738L22.364 18.806ZM8.17647 19.738H8L8.35294 19.398L8.64706 19.262L8.94118 19.33L9 19.466V19.602L8.76471 19.466L8.17647 19.738ZM23.2 20.908L23 20.568L23.3333 20.5V20.16L23.4667 20.092L23.8 20.296L24 20.568L23.9333 20.704L23.6 20.568L23.4667 20.84L23.2 20.908ZM4.16 20.942L4.228 20.806L4.5 20.534L4.432 20.194L4.296 20.058H4.84L4.772 20.33L4.432 20.874L4.16 20.942ZM21.84 22H21.16L21.364 21.3L21.5 20L21.704 20.2V20.9L21.5 21.4V21.8L21.84 22ZM4.5 21.772H4.364L4.16 21.5L4.296 21.568L4.364 21.296L4.568 21.228L4.84 21.296L4.5 21.772ZM1.398 21.704H1.126L1.194 21.364L1.466 21.296L1.806 21.5L1.874 21.636L1.602 21.568L1.398 21.704ZM24.9444 21.942H24.8333L24.5556 21.602L24.6667 21.466V21.33L24.1111 21.534L24 21.33L24.1111 21.262L24.2778 21.33L24.4444 21.058H24.7778L24.9444 21.262L24.8889 21.602L24.7778 21.67L25 21.738L24.9444 21.942ZM20.33 21.772L20.262 21.432L20.602 21.228L20.738 21.296L20.33 21.772ZM4.0625 23L4 22.75L4.25 22.4375L4.5625 22.375L4.5 22.1875L4.375 22.125V22L4.75 22.125L5 22.4375L4.75 22.6875L4.5 22.625L4.3125 22.6875L4.0625 23ZM2.602 22.84H2.466L2.33 22.636V22.16H2.466L2.67 22.432V22.704L2.602 22.84ZM22.16 22.84H22.024V22.772L22.092 22.16L22.772 22.296L22.976 22.568V22.704L22.636 22.568L22.16 22.84ZM20.67 24L20.262 23.8H20.126L20.262 23L20.534 23.1333L20.806 23L20.738 23.4L20.602 23.5333L20.874 23.8667L20.67 24ZM22.33 23.67L22.262 23.602L22.33 23.33L22.738 23.398L22.602 23.602L22.33 23.67ZM23.704 23.772L23.296 23.636L23.228 23.5L23.568 23.364L23.364 23.228H23.704L23.772 23.5L23.704 23.772ZM22.534 24.738H22.398L22.262 24.534L22.33 24.262H22.466L22.602 24.466L22.738 24.534L22.534 24.738ZM21.67 25.67L21.534 25.602L21.262 25.67L21.33 25.466L21.602 25.33H21.738L21.67 25.67ZM22.806 27.772H22.67L22.194 27.228H22.262L22.534 27.296L22.738 27.5L22.806 27.772ZM4.364 28.772H4.228L4.432 28.296L4.636 28.228L4.772 28.296L4.5 28.704L4.364 28.772ZM23.5 29.806L23.364 29.738V29.262L23.568 29.194L23.636 29.534L23.5 29.806ZM24.67 29.772L24.398 29.704L24.33 29.432V29.228L24.534 29.364L24.67 29.772ZM5.534 29.704L5.262 29.568V29.296H5.602L5.738 29.432L5.67 29.636L5.534 29.704ZM4.16 31V30.6842L4.636 30.2105V30H4.772L4.84 30.1053L4.568 30.5789L4.16 31ZM24.84 32.67H24.704L24.5 32.466L24.228 32.67L24.092 32.602L24.228 32.398L24.636 32.33L24.908 32.466V32.534L24.84 32.67ZM23.432 34.942L23.228 34.738L23.636 34.058L23.772 34.126L23.5 34.806L23.432 34.942ZM21.738 34.738L21.194 34.602L21.262 34.33L21.602 34.262L21.806 34.398V34.534L21.738 34.738ZM19.5 38.67L19.296 38.602L19.228 38.534L19.364 38.33L19.636 38.398L19.772 38.602L19.5 38.67ZM6.432 43.738L6.296 43.67V43.534L6.568 43.262H6.704V43.534L6.432 43.738ZM25.466 43.908L25.33 43.84V43.636L25.466 43.5L25.398 43.16L25.602 43.092L25.67 43.568L25.602 43.636L25.466 43.908Z" fill="#573912"/>
<path d="M15.3846 45L15.4615 44.9243H17.0769L17.6154 44.6974L18 44.3948L18.1538 44.0165L18.2308 42.3521L18.3077 42.2008V32.1389L18.2308 31.9876V27.5997L18.3077 27.4484L18.3846 25.7084L18.2308 24.4223L18.0769 24.1197L18.3077 23.2118L18.3846 22.2283L18.6154 21.9257L19.5385 21.6988L21.6154 21.8501L22 21.6988H23.2308L23.3077 21.7744H23.9231L24.0769 21.8501L25.5385 21.6988L26.3846 21.9257L26.6923 22.304V23.5144L26.7692 23.6657L26.6923 24.9519L26.7692 25.5571L26.6923 25.7084V26.6162L26.7692 26.7675L26.6154 28.0536L26.7692 28.2806V29.3398L27.2308 29.4911L27.0769 29.718L26.7692 29.7937L26.8462 30.2476L26.6923 30.7772V31.3824L26.8462 31.685L26.6923 32.1389L26.8462 32.5172V33.1981L26.7692 33.3494V35.9216L26.8462 35.9972V37.9642L26.6923 38.1155V39.0234L26.7692 39.1747V40.1582L26.6923 40.3095V41.7469L26.7692 41.8982V43.7139L27.2308 44.6974L27.7692 44.9243L28.2308 44.8487H30.1538L30.3077 44.9243H30.9231L31.0769 45H33.0769L33.8462 44.6217L33.7692 44.9243L34.0769 45L34.4615 44.8487L35.9231 44.9243L36.7692 44.3191L36.8462 43.033L36.7692 42.8817L36.9231 41.7469V40.6878L36.8462 40.5364V39.4773L37 39.1747L36.9231 38.2668L36.8462 38.1155V37.5103L36.9231 37.359V35.0138L37 34.4085L36.8462 33.5763L36.9231 33.425V31.912L36.8462 31.8363V30.7772L36.9231 30.6259V29.8693L36.8462 29.718V29.1128L36.9231 28.9615V26.1623L37 25.7084L36.7692 25.2545L36.9231 24.9519V23.5144L36.6923 23.2875L36.8462 22.8336L36.6923 22.3796L36.9231 21.4718V19.0509L36.8462 18.8996V17.6891L36.9231 17.5378L36.8462 16.2517L36.9231 16.1761V14.0578L36.8462 13.9065V8.91334L36.9231 8.76204V8.15681L36.6923 7.70289L36.8462 6.94635V3.08803L37 2.48281V1.57497L36.9231 1.42366V-1.90509L37 -2.0564V-2.96424L36.7692 -3.56946L36.8462 -3.72077L36.7692 -4.93122L36.6154 -5.4608L36.1538 -6.21733L36.2308 -6.29298L36.7692 -5.91472L36.9231 -6.67125V-8.48693L36.5385 -9.69739L35.5385 -9.92435H34.8462L34.6923 -9.84869H33.1538L33 -9.92435H31.5385L30.9231 -9.77304L30.3846 -10L29.3846 -9.92435L28.7692 -9.77304L27.5385 -9.69739L26.9231 -9.09216L26.7692 -8.71389V-7.57909L27 -7.7304L27.2308 -8.10867L27.3846 -7.95736V-7.65475L26.7692 -7.20083L26.6923 -6.97387L26.7692 -6.82256V-5.08253L26.6923 -4.93122V-3.26685L26.9231 -2.28336L26.7692 -1.90509L26.9231 -1.60248V-1.37552L26.6923 -1.14856V-0.543329L26.7692 -0.392022V0.288858L26.6923 0.440166V2.02889L27 2.40715L26.7692 2.63411L26.6923 2.86107L26.9231 4.07153L26.7692 5.05502L26.9231 5.96286L26.6923 6.34113V8.76204L26.8462 9.06465L27 9.1403L26.6923 10.2751V10.8803L26.8462 11.1073H27L27.0769 11.2586L26.7692 11.3343L26.6923 11.9395L26.3846 12.5447L26 12.7717H24.8462L24.1538 12.6204H22.7692L22.6154 12.7717L22.8462 12.9986L23.0769 13.0743L23.2308 13.3012L23.0769 13.2256H22.0769L21.9231 12.696H19.0769L18.7692 12.6204L18.3077 12.1664L18.2308 11.8638L18.3077 10.0481L18.3846 9.89684L18.3077 8.83769L18.1538 8.30812L18.3077 7.92985L18.0769 7.62724L18.3077 6.18982V5.35763L18.0769 5.28198L17.9231 5.58459L17.6923 5.50894L18.0769 4.90371L18.3846 4.6011L18.1538 3.84457V3.01238L18.2308 2.86107V2.25585L18.3077 2.10454V1.42366L18.3846 1.27235L18.2308 0.0618982L18.3846 -1.67813L18.3077 -1.82944V-2.58597L18.2308 -2.73728V-3.94773L18.3077 -4.09904V-6.97387L18.1538 -7.65475L18.4615 -8.63824L18.1538 -9.24347L17.6923 -9.62173L16.9231 -9.84869L15.6923 -10L15.0769 -9.84869H14L13.8462 -9.92435H13.0769L12.9231 -9.84869H10.6154L10.4615 -9.92435H9.30769L8.69231 -9.69739L8.15385 -9.01651L8.07692 -8.10867L8.23077 -7.35213L8.07692 -6.29298L8.23077 -4.40165L8.15385 -4.25034V-3.3425L8.07692 -3.1912V-2.28336L8.15385 -2.13205V-0.467675L8.07692 -0.316369L8.15385 0.894085L8 1.04539L8.15385 4.22283L8 4.6011V5.20633L8.07692 5.35763V8.91334L8 9.06465L8.15385 10.8047L8.23077 11.1073L8.07692 11.9395L8.23077 12.3177V15.3439L8.15385 15.4952V17.3865L8.07692 17.5378L8.15385 18.9752L8.07692 19.5805L8.23077 19.8831L8.07692 20.2613V21.0179L8.15385 21.1692V22.304L8.07692 22.4553V23.5901L8.15385 23.7414V25.2545L8.07692 25.4058V26.8432L8.23077 27.9023L8.07692 28.1293V29.6424L8 29.7937L8.07692 31.458L8.15385 31.6094L8.07692 33.1224L8.23077 33.8033L8.15385 35.619L8.07692 35.7703V37.8129L8.23077 37.9642V38.7208L8 39.2503L8.15385 39.6286L8 40.9904V43.033L8.30769 44.1678L8.69231 44.6974L9.30769 44.9243H10L10.1538 45L11.7692 44.9243L11.9231 44.8487H13.1538L13.8462 45H15.3846ZM32.5 -7.194H32.364L32.296 -7.398L32.5 -7.806L32.704 -7.602L32.5 -7.194ZM29.534 -7.262L29.126 -7.33L29.398 -7.602L29.67 -7.738L29.738 -7.67L29.874 -7.602L29.534 -7.262ZM31.33 -7.262L31.262 -7.398L31.398 -7.602L31.67 -7.738L31.738 -7.67L31.602 -7.398L31.33 -7.262ZM29.636 -6H29.364L29.092 -6.29412L29.16 -6.76471L29.092 -7H29.5V-6.88235L29.84 -6.64706L29.908 -6.41176L29.636 -6ZM32.806 -6.262L32.126 -6.602L32.33 -6.738L32.874 -6.67L32.806 -6.398V-6.262ZM34.432 -6.296L34.296 -6.364L34.364 -6.568V-6.704L34.636 -6.636L34.704 -6.364L34.432 -6.296ZM33.534 -5.262L33.262 -5.466L33.194 -5.738L33.806 -5.67V-5.602L33.738 -5.398L33.534 -5.262ZM29.704 -4.024L29.432 -4.16L29.228 -4.5L29.092 -4.568V-4.772L29.364 -4.976L29.568 -4.908L29.432 -4.636L29.568 -4.5L29.772 -4.364L29.908 -4.296L29.84 -4.092L29.704 -4.024ZM30.228 -4.296H30.092L30.228 -4.5L30.432 -4.432L30.636 -4.704H30.908L30.84 -4.568L30.228 -4.296ZM31.1667 -3L31 -3.27273V-3.81818L31.0833 -3.90909V-4.45455L32 -4.72727L32.25 -5L32.1667 -4.54545L32.5 -3.90909H32.8333L33.1667 -4.27273L33.25 -4.45455L33.9167 -3.63636L34 -3.18182L33.4167 -3.45455H32.75L32.5833 -3.36364H31.9167L32.1667 -3.81818L31.9167 -4.18182L31.4167 -3.09091L31.1667 -3ZM34.5 -4.33L34.228 -4.602L34.636 -4.67L34.772 -4.534V-4.398L34.5 -4.33ZM29.466 -3.058L29.126 -3.262L29.534 -3.67L29.67 -3.942H29.874L29.602 -3.67L29.466 -3.058ZM30.534 -3.092H30.398L30.33 -3.296L30.466 -3.908L30.67 -3.772L30.534 -3.228V-3.092ZM31.704 -2.296L31.228 -2.432L31.364 -2.636L31.636 -2.704L31.772 -2.568V-2.432L31.704 -2.296ZM14.534 -1.092H14.398V-1.228H14.262L14.33 -1.5L14.602 -1.908L14.738 -1.84L14.534 -1.092ZM30.4444 0L30.3333 -0.137931L30.2778 -1.03448L30 -1.37931V-1.86207L30.0556 -2L30.6111 -1.93103L30.4444 -1.7931L30.5556 -1.58621L30.3889 -1.31034L30.6111 -1.03448L30.6667 -0.827586L31 -0.482759V-0.344828H30.8889L30.6667 -0.551724L30.5556 -0.0689659L30.4444 0ZM32.874 -1L32.194 -1.53333L32.126 -2L32.874 -1.2V-1ZM28.636 1H28.432L28.092 0.619047L28.16 0.238095V-0.333333L28.364 -0.904762L28.568 -1L28.772 -0.809524L28.908 -0.238095L28.636 -0.142858L28.364 0.428572V0.809524L28.704 0.714286L28.636 1ZM30.364 -0.33L30.228 -0.398L30.296 -0.67H30.636L30.772 -0.602L30.636 -0.398L30.364 -0.33ZM28.568 -0.262L28.364 -0.33L28.296 -0.534L28.568 -0.738L28.636 -0.67L28.704 -0.534L28.568 -0.262ZM34 1L33.7 0.9375L32.8 0.375L32.2 0.6875H32L32.3 0.375L33.1 0.125L33.4 0L33.3 0.375L33.9 0.1875L34 1ZM14.84 1L14.16 0.736842L14.364 0L14.568 0.0526314L14.636 0.473684L14.84 0.789474V1ZM10.704 0.67L10.296 0.602V0.466L10.432 0.33H10.568L10.704 0.466V0.67ZM15.364 0.704L15.296 0.5L15.5 0.296H15.704L15.636 0.636L15.364 0.704ZM32 0.772V0.636L32.2632 0.432H32.5789V0.228L33 0.364L32.8947 0.704L32 0.772ZM29.364 1.704L29.16 1.5V1.364L29.296 1.432L29.568 1.296H29.84V1.432L29.636 1.636L29.364 1.704ZM31.772 1.84L31.364 1.636L31.296 1.364L31.228 1.228L31.432 1.16L31.636 1.432L31.772 1.84ZM28.432 1.806L28.16 1.602V1.194L28.432 1.33L28.772 1.262L28.84 1.33V1.738L28.432 1.806ZM32.432 1.704H32.296L32.228 1.5L32.364 1.296L32.772 1.364L32.704 1.568L32.432 1.704ZM34.534 1.67L34.262 1.602V1.466L34.466 1.33H34.602L34.738 1.602L34.534 1.67ZM15.738 1.738L15.534 1.67L15.126 1.262H15.534L15.806 1.398L15.874 1.534V1.67L15.738 1.738ZM27.602 2.772L27.33 2.364V2.228L27.67 2.364V2.636L27.602 2.772ZM32.398 2.84L32.262 2.704L32.602 2.16L32.738 2.228L32.67 2.704L32.398 2.84ZM29.16 2.738L29.092 2.602L29.228 2.398L29.636 2.262L29.908 2.534V2.67L29.568 2.602L29.16 2.738ZM13.568 2.772L13.296 2.704L13.16 2.364L13.228 2.228L13.84 2.432L13.704 2.704L13.568 2.772ZM30.704 2.738H30.364L30.092 2.602L30.296 2.33L30.704 2.262L30.908 2.466V2.602L30.704 2.738ZM29.4 5H29.2667L29.1333 4.76L29.0667 4.36L29.2667 3.96L29 3.4L29.5333 3.32L29.8 3L30 3.16V3.32L29.6 3.48H29.5333L29.6667 4.04L29.4 4.44L29.4667 4.76L29.4 5ZM33.772 3.806H33.5L33.228 3.67L33.092 3.33L33.296 3.194L33.704 3.262L33.908 3.466V3.602L33.772 3.806ZM32.602 5L32.33 4.92L32.126 4.68L32.806 3H32.874L32.806 3.64L32.466 4.44H32.602L32.738 4.28L32.874 4.2V4.92L32.602 5ZM11.432 3.772L11.296 3.568L11.5 3.228L11.636 3.296L11.704 3.364L11.636 3.636L11.432 3.772ZM28.704 4.874L28.364 4.466L28.296 4.194L28.5 4.126L28.636 4.33L28.704 4.738V4.874ZM31.364 4.636L31.024 4.568L31.16 4.364H31.908L31.976 4.568L31.364 4.636ZM35.296 4.704L35.16 4.568L35.432 4.364L35.84 4.296L35.704 4.568L35.296 4.704ZM31.3333 5.84L31.1667 5.704L31 5.16H31.7778L32 5.432V5.568L31.6667 5.432L31.3333 5.84ZM31.432 6.772H31.228L31.364 6.364L31.5 6.228L31.704 6.296L31.772 6.5L31.432 6.772ZM29.33 6.772L29.194 6.636L29.262 6.364L29.466 6.228L29.806 6.296V6.432L29.67 6.704L29.33 6.772ZM33.636 6.772H33.296L33.364 6.364L33.296 6.228H33.568L33.704 6.432L33.636 6.772ZM29.8 7.908L29.2667 7.704L29.3333 7.568L29 7.092L29.6 7.364L29.7333 7.568L30 7.704L29.8 7.908ZM13.84 7.908L13.636 7.5L13.432 7.568L13.16 7.228L13.432 7.092L13.636 7.228L13.84 7.908ZM32.2632 10L32.0263 9.76923L31.9474 9.38461V9.23077L32.2632 8.92308L32.1053 8.61539L31.9474 8.53846L31.7895 8.61539L31.6316 8.46154L31.7895 8.15385H31.1579L31 7.92308L31.1579 7.53846L32.1053 7L31.9474 7.46154L31.7105 7.53846L32.0263 8.30769L32.2632 8.46154L32.6579 8.53846L32.8947 8.38461L33.2105 7.92308L33.3684 7.84615V8.15385L33.5263 8.46154L33.6842 8.53846L33.2895 8.76923L33.3684 8.92308L33.8421 9L34 9.15385V9.38461L32.5789 9.07692L32.1842 9.30769L32.5789 9.92308L32.2632 10ZM32.16 7.738V7.602L32.5 7.33L32.772 7.262H32.84L32.568 7.534L32.16 7.738ZM27.738 7.772L27.466 7.704L27.262 7.296L27.398 7.228L27.738 7.5V7.772ZM15.67 7.806L15.602 7.602L15.67 7.466L15.398 7.534L15.194 7.398L15.126 7.262L15.738 7.194V7.466L15.874 7.738L15.67 7.806ZM16.568 8.84L16.296 8.704L16.364 8.432L16.568 8.16L16.704 8.364L16.568 8.84ZM29.364 8.942L29.16 8.738L29.364 8.262L29.636 8.058L29.704 8.126H29.84L29.636 8.33L29.364 8.942ZM34.704 8.67L34.5 8.602L34.228 8.67L34.16 8.534H34.432L34.704 8.33H34.84L34.704 8.67ZM27.432 8.67H27.16L27.092 8.534V8.398L27.908 8.33L27.568 8.398L27.432 8.67ZM28.5 9.84L28.296 9.704L28.364 9.228L28.5 9.16H28.568L28.704 9.364L28.5 9.84ZM29.636 9.704L29.228 9.432L29.296 9.296H29.568L29.772 9.5V9.636L29.636 9.704ZM30.619 10L30.5238 9.76471L30.2381 9.52941L29.9524 9.58823H29.7619L30.0476 9.47059L29.0952 9.64706L29 9.47059L29.4762 9.17647V9L29.6667 9.05882V9.35294L29.8571 9.41177H30.619L30.9048 9.58823L31 9.88235L30.619 10ZM28.602 9.772L28.262 9.704V9.568L28.466 9.364V9.228L28.738 9.364V9.636L28.602 9.772ZM12.466 10.67L12.262 10.602L12.398 10.398L12.67 10.33L12.738 10.398V10.602L12.466 10.67ZM29.84 10.738L29.364 10.67L29.16 10.466V10.33L29.296 10.262L29.5 10.33L29.84 10.738ZM27.432 10.874L27.228 10.466V10.194L27.704 10.126L27.772 10.194V10.602L27.568 10.806L27.432 10.874ZM30.33 11.772L30.194 11.704L30.398 11.364L30.67 11.228L30.806 11.296L30.33 11.772ZM11.364 11.704L11.228 11.636L11.636 11.296L11.772 11.364L11.704 11.636L11.364 11.704ZM27.738 11.738H27.33L27.194 11.67L27.262 11.262L27.806 11.67L27.738 11.738ZM13.398 11.704L13.262 11.568L13.194 11.364L13.398 11.296L13.738 11.5L13.806 11.636L13.398 11.704ZM14.4 13L14.1333 12.9L14.4667 12.2L14.3333 11.9L14.0667 11.8L14 11.6L14.4 11.1L14.6667 11L15 11.2L14.9333 11.5L14.6667 11.6L14.6 11.8L14.7333 12.2V12.6L14.4 13ZM33.6429 12.976L33.4286 12.704L33 12.908L32.5714 12.568H32.2857L32.1429 12.16L32 12.092L32.2143 12.024L32.6429 12.228L32.9286 12.5L33.4286 12.296L33.7143 12.364L34 12.704L33.6429 12.976ZM12.4 12.874L12.3333 12.67L12 12.262L12.6667 12.126L12.8667 12.194L13 12.262L12.4 12.874ZM34.534 13.738L34.33 13.602L34.262 13.466L34.33 13.262L34.67 13.398L34.738 13.534L34.534 13.738ZM31.7692 16V15.6364L31.6154 15.2727L31.3077 15.0909L31 15.1818V15.7273L30.8462 15.8182L30.4615 15.2727L29.7692 15.5455H29L28.6923 15.3636L28.6154 15.5455L28.7692 15.8182L28.5385 15.9091L28.3077 15.6364V15.2727L28.6154 14.9091V14.7273L28 14.5455V14.0909L28.3846 14L28.7692 14.2727L29 15.1818L29.3077 14.9091L29.5385 15L29.6154 15.1818L30.6154 15L31 14.8182L31.5385 15L32 15.4545L31.9231 15.6364L32 15.8182L31.7692 16ZM24.2941 16H24.1765L24.6471 15.0833L24.4706 14.8333L24.4118 14.5L24.1176 14.25L24 14L24.8235 14.1667L25 14.4167L24.6471 14.8333L24.8235 15L24.8824 15.25L24.7647 15.5833L24.2941 16ZM21.398 14.738L21.262 14.67L21.398 14.262H21.534L21.738 14.466L21.67 14.602L21.398 14.738ZM14.67 15.738L14.33 15.67L14.398 15.262L14.534 15.33L14.67 15.602V15.738ZM15.636 15.772H15.5L15.364 15.636V15.228L15.568 15.364L15.636 15.772ZM19.5854 19L19.3659 18.9149L19 18.0638V17.8085L19.5854 17.7234L19.6585 17.2979L19.5854 16.9574L19.8049 16.7021L20.4634 16.9574L21.4146 16.1915L21.3415 16.0213L20.6829 15.5957L20.7561 15.2553L20.9756 15L21.0488 15.2553L20.9756 15.4255L21.0488 15.5106L21.2683 15.4255L22 16.7872L21.7073 16.8723L21.4146 17.0426L21.4878 16.7872L21.4146 16.617L20.8293 17.2128L20.6098 17.2979L20.5366 17.1277L19.9512 17.7234L19.5854 18.6596V19ZM13.67 15.84L13.398 15.704L13.194 15.296L13.738 15.16L13.806 15.228L13.67 15.84ZM22.602 15.908L22.398 15.772L22.33 15.364L22.194 15.296L22.466 15.092L22.738 15.16L22.806 15.636L22.738 15.772L22.602 15.908ZM30.76 18H30.52L30.2 17.8667L30.04 17.6667L29.96 17.5333L29.88 17.6667L29.48 16.8L29.16 16.8667L29 16.8L29.08 16.5333L29.72 16.2V16L30.04 16.0667L30.2 16.3333L29.8 16.7333L30.2 17.3333L30.52 17.6L31 17.7333L30.76 18ZM34.704 16.806L34.364 16.602H34.16V16.398L34.364 16.194L34.84 16.398L34.704 16.806ZM12.2727 18L12.1818 17.5152L11.8182 17.0909H11.6364L11.4545 17.0303L11.8182 16.4848L11.5455 16.4242L11.3636 16.4848L11 16.2424L11.7273 16L12.1818 16.0606L12.2727 16.4242L12.0909 17.0909L12.6364 17.5758H13L12.9091 17.8182L12.7273 17.9394L12.2727 18ZM28.7 16.738L28.2 16.534L28 16.602H27.8L27.3 16.738L27 16.67L27.6 16.33L29 16.262L28.7 16.738ZM26.772 16.806L26.296 16.67L26.228 16.534L26.5 16.194H26.772L26.636 16.466L26.772 16.806ZM18.16 17.874L18.432 17.262L18.704 17.126L18.84 17.67L18.568 17.602L18.16 17.874ZM28 19L27.4 18.6522H27V18.4783L27.3333 18.1304L27.4 17.9565L27.3333 17.6087L27.5333 17H27.7333V17.6957L28 18.4783V19ZM14.5 17.976L14.296 17.772L14.228 17.16L14.636 17.024L14.772 17.092V17.364L14.704 17.5V17.908L14.5 17.976ZM17.7059 17.704L17 17.636L17.0588 17.5L17.4118 17.296L17.7647 17.364H18L17.9412 17.568L17.7059 17.704ZM33.364 17.908L33.296 17.704L33.568 17.228V17.092L33.704 17.16V17.432L33.364 17.908ZM28.1667 20L28 19.8286L28.0556 18.8L28.3333 19.0571L28.3889 18.8857L28.2222 18.1143L28.6667 17.6857L28.7778 17L28.9444 17.1714L29 17.6857L28.8889 17.9429L28.7778 17.8571L28.6667 17.9429L28.4444 18.8L28.5556 19.4857L28.5 19.5714L28.4444 19.4857L28.2222 19.3143L28.1667 19.5714L28.2222 19.9143L28.1667 20ZM28.806 17.67L28.194 17.534L28.262 17.33H28.466L28.738 17.534L28.806 17.67ZM10.772 17.874H10.364L10.228 17.67V17.466L10.432 17.398L10.5 17.126L10.772 17.874ZM21.262 17.704L21.194 17.636L21.126 17.5L21.262 17.296L21.602 17.364L21.874 17.636L21.262 17.704ZM26.942 17.67H26.398L26.126 17.534L26.058 17.398L26.466 17.33L26.738 17.398L26.942 17.67ZM20.602 17.738L20.398 17.67L20.33 17.534V17.398L20.602 17.262L20.67 17.534L20.602 17.738ZM17.738 18.772L17.466 18.704L17.262 18.364L17.466 18.228L17.67 18.296L17.738 18.432V18.772ZM18.6875 18.704L18.25 18.636L18 18.364L18.25 18.296L19 18.432V18.5L18.875 18.636L18.6875 18.704ZM33.432 18.704L33.296 18.636L33.432 18.296L33.704 18.432V18.568L33.432 18.704ZM31.364 18.806L31.296 18.398L31.568 18.194L31.636 18.262L31.704 18.466L31.636 18.738L31.364 18.806ZM17.1765 19.738H17L17.3529 19.398L17.6471 19.262L17.9412 19.33L18 19.466V19.602L17.7647 19.466L17.1765 19.738ZM32.2 20.908L32 20.568L32.3333 20.5V20.16L32.4667 20.092L32.8 20.296L33 20.568L32.9333 20.704L32.6 20.568L32.4667 20.84L32.2 20.908ZM13.16 20.942L13.228 20.806L13.5 20.534L13.432 20.194L13.296 20.058H13.84L13.772 20.33L13.432 20.874L13.16 20.942ZM30.84 22H30.16L30.364 21.3L30.5 20L30.704 20.2V20.9L30.5 21.4V21.8L30.84 22ZM13.5 21.772H13.364L13.16 21.5L13.296 21.568L13.364 21.296L13.568 21.228L13.84 21.296L13.5 21.772ZM10.398 21.704H10.126L10.194 21.364L10.466 21.296L10.806 21.5L10.874 21.636L10.602 21.568L10.398 21.704ZM33.9444 21.942H33.8333L33.5556 21.602L33.6667 21.466V21.33L33.1111 21.534L33 21.33L33.1111 21.262L33.2778 21.33L33.4444 21.058H33.7778L33.9444 21.262L33.8889 21.602L33.7778 21.67L34 21.738L33.9444 21.942ZM29.33 21.772L29.262 21.432L29.602 21.228L29.738 21.296L29.33 21.772ZM13.0625 23L13 22.75L13.25 22.4375L13.5625 22.375L13.5 22.1875L13.375 22.125V22L13.75 22.125L14 22.4375L13.75 22.6875L13.5 22.625L13.3125 22.6875L13.0625 23ZM11.602 22.84H11.466L11.33 22.636V22.16H11.466L11.67 22.432V22.704L11.602 22.84ZM31.16 22.84H31.024V22.772L31.092 22.16L31.772 22.296L31.976 22.568V22.704L31.636 22.568L31.16 22.84ZM29.67 24L29.262 23.8H29.126L29.262 23L29.534 23.1333L29.806 23L29.738 23.4L29.602 23.5333L29.874 23.8667L29.67 24ZM31.33 23.67L31.262 23.602L31.33 23.33L31.738 23.398L31.602 23.602L31.33 23.67ZM32.704 23.772L32.296 23.636L32.228 23.5L32.568 23.364L32.364 23.228H32.704L32.772 23.5L32.704 23.772ZM31.534 24.738H31.398L31.262 24.534L31.33 24.262H31.466L31.602 24.466L31.738 24.534L31.534 24.738ZM30.67 25.67L30.534 25.602L30.262 25.67L30.33 25.466L30.602 25.33H30.738L30.67 25.67ZM31.806 27.772H31.67L31.194 27.228H31.262L31.534 27.296L31.738 27.5L31.806 27.772ZM13.364 28.772H13.228L13.432 28.296L13.636 28.228L13.772 28.296L13.5 28.704L13.364 28.772ZM32.5 29.806L32.364 29.738V29.262L32.568 29.194L32.636 29.534L32.5 29.806ZM33.67 29.772L33.398 29.704L33.33 29.432V29.228L33.534 29.364L33.67 29.772ZM14.534 29.704L14.262 29.568V29.296H14.602L14.738 29.432L14.67 29.636L14.534 29.704ZM13.16 31V30.6842L13.636 30.2105V30H13.772L13.84 30.1053L13.568 30.5789L13.16 31ZM33.84 32.67H33.704L33.5 32.466L33.228 32.67L33.092 32.602L33.228 32.398L33.636 32.33L33.908 32.466V32.534L33.84 32.67ZM32.432 34.942L32.228 34.738L32.636 34.058L32.772 34.126L32.5 34.806L32.432 34.942ZM30.738 34.738L30.194 34.602L30.262 34.33L30.602 34.262L30.806 34.398V34.534L30.738 34.738ZM28.5 38.67L28.296 38.602L28.228 38.534L28.364 38.33L28.636 38.398L28.772 38.602L28.5 38.67ZM15.432 43.738L15.296 43.67V43.534L15.568 43.262H15.704V43.534L15.432 43.738ZM34.466 43.908L34.33 43.84V43.636L34.466 43.5L34.398 43.16L34.602 43.092L34.67 43.568L34.602 43.636L34.466 43.908Z" fill="#573912"/>
</g>
</svg>
