<svg xmlns="http://www.w3.org/2000/svg" xmlns:xlink="http://www.w3.org/1999/xlink" viewBox="0 0 140 140"><defs><style>.cls-1{fill:#fff;}.cls-1,.cls-2{fill-rule:evenodd;}.cls-2{fill:#785931;}.cls-3{mask:url(#mask);}.cls-4{mask:url(#mask-2);}.cls-5{mask:url(#mask-3);}.cls-6{mask:url(#mask-4);}.cls-7{fill:none;}</style><mask id="mask" x="11.68" y="98.45" width="12.46" height="12.27" maskUnits="userSpaceOnUse"><g id="h73fucuaob"><path id="_8xi32cz4wa" data-name="8xi32cz4wa" class="cls-1" d="M24.14,105.28l-7.5,5.45-5-6.83,7.5-5.45Z"/></g></mask><mask id="mask-2" x="30.55" y="12.36" width="11.89" height="12.54" maskUnits="userSpaceOnUse"><g id="jmle30ieud"><path id="v4y21d2fyc" class="cls-1" d="M42.44,20.62,36.55,24.9l-6-8.26,5.89-4.28Z"/></g></mask><mask id="mask-3" x="114.16" y="29.14" width="11.33" height="10.55" maskUnits="userSpaceOnUse"><g id="his85uwz8f"><path id="bw31qu40ee" class="cls-1" d="M125.49,34.06l-7.75,5.63-3.58-4.92,7.75-5.63Z"/></g></mask><mask id="mask-4" x="112.59" y="102.62" width="12.66" height="13.07" maskUnits="userSpaceOnUse"><g id="mm8mmmvybh"><path id="ybsgd0xwsg" class="cls-1" d="M125.25,110.8l-6.71,4.88-6-8.18,6.72-4.88Z"/></g></mask></defs><g id="Layer_2" data-name="Layer 2"><g id="Layer_1-2" data-name="Layer 1"><path class="cls-2" d="M27.8,109.84a2.78,2.78,0,0,1,.09,1.55,2.38,2.38,0,0,1-.68,1.18.31.31,0,0,1-.21.07.25.25,0,0,1-.19-.09l-.75-.84a.5.5,0,0,1-.11-.22.65.65,0,0,1,.05-.25,1.35,1.35,0,0,0,.2-.94,2.24,2.24,0,0,0-.59-1.14,2.4,2.4,0,0,0-1.15-.81,1,1,0,0,0-1,.25.82.82,0,0,0-.32.58,2,2,0,0,0,.14.8c.12.31.31.75.59,1.32a5.09,5.09,0,0,1,.69,2.3,2.31,2.31,0,0,1-.91,1.69,2.48,2.48,0,0,1-1.32.62,2.76,2.76,0,0,1-1.5-.23,4.23,4.23,0,0,1-1.43-1.09,3.74,3.74,0,0,1-.9-1.61,3,3,0,0,1,0-1.51,2.28,2.28,0,0,1,.61-1.09.26.26,0,0,1,.2-.07.26.26,0,0,1,.19.08l.79.89a.36.36,0,0,1,0,.44,1.13,1.13,0,0,0-.21.86,1.85,1.85,0,0,0,.49,1,1.94,1.94,0,0,0,1,.65,1.06,1.06,0,0,0,1.23-.8,1.71,1.71,0,0,0-.09-.77c-.1-.3-.28-.7-.52-1.22a8.45,8.45,0,0,1-.73-1.73,2.38,2.38,0,0,1,0-1.3,2.45,2.45,0,0,1,.79-1.1,2.64,2.64,0,0,1,1.44-.66,2.93,2.93,0,0,1,1.59.31,4.86,4.86,0,0,1,1.51,1.19,4.55,4.55,0,0,1,1,1.7"/><g class="cls-3"><path class="cls-2" d="M22.69,105.13a3.38,3.38,0,0,1-1.56,2.33c-.19.13-.5.34-.94.62l-1,.6a3.44,3.44,0,0,1-2.79.42,4.44,4.44,0,0,1-2.4-2,5.33,5.33,0,0,1-.85-2,3.25,3.25,0,0,1,.12-1.77,2.54,2.54,0,0,1,1-1.26l0,0a.21.21,0,0,1,.19,0,.3.3,0,0,1,.17.14l.73,1.12a.36.36,0,0,1,.08.24.43.43,0,0,1-.13.25,1.84,1.84,0,0,0-.55,1.24,2.52,2.52,0,0,0,.48,1.34,1.9,1.9,0,0,0,2.89.65c.2-.11.51-.3.91-.56s.71-.45.92-.59a1.88,1.88,0,0,0,.6-2.88,2.55,2.55,0,0,0-1-1,1.81,1.81,0,0,0-1.36,0,.39.39,0,0,1-.28,0,.36.36,0,0,1-.19-.18L17,100.64a.34.34,0,0,1,0-.22.2.2,0,0,1,.12-.17,2.65,2.65,0,0,1,1.58-.37,3.42,3.42,0,0,1,1.68.63,5.6,5.6,0,0,1,1.51,1.61,4.4,4.4,0,0,1,.86,3"/></g><path class="cls-2" d="M12.89,96.47a1.78,1.78,0,0,0-.79-.93,1.19,1.19,0,0,0-1,0,1.2,1.2,0,0,0-.74.74,1.68,1.68,0,0,0,.17,1.2l.75,1.65,2.4-1-.75-1.65Zm5.65,1.37a.27.27,0,0,1-.16.17L11,101.21a.33.33,0,0,1-.24,0,.31.31,0,0,1-.17-.17L9.21,98a3.81,3.81,0,0,1-.37-2.52,2.33,2.33,0,0,1,1.47-1.61,2.43,2.43,0,0,1,1.57-.19,2.64,2.64,0,0,1,1.34.8l2.11-3a.44.44,0,0,1,.11-.09.23.23,0,0,1,.2,0,.29.29,0,0,1,.15.14l.48,1.07a.49.49,0,0,1,.06.32.86.86,0,0,1-.15.28l-2,2.67.74,1.63,2.72-1.18a.31.31,0,0,1,.23,0,.26.26,0,0,1,.17.17l.49,1.06A.31.31,0,0,1,18.54,97.84Z"/><path class="cls-2" d="M12.13,85.46a2.47,2.47,0,0,0-1.78-.15l-1.06.25-1,.31a2.37,2.37,0,0,0-1.46,1,2.24,2.24,0,0,0,.8,2.83,2.39,2.39,0,0,0,1.77.14c.26,0,.61-.14,1.07-.26l1.05-.29a2.41,2.41,0,0,0,1.46-1,2,2,0,0,0,.13-1.55,2,2,0,0,0-.93-1.28m2.32,3.93a3.61,3.61,0,0,1-2.38,1.77l-1.11.3-1.12.29a3.77,3.77,0,0,1-3-.39,4.29,4.29,0,0,1-1.71-2.54,4.17,4.17,0,0,1,.14-3A3.58,3.58,0,0,1,7.65,84l1.12-.32,1.11-.26a3.76,3.76,0,0,1,3,.37,4.29,4.29,0,0,1,1.69,2.57,4.19,4.19,0,0,1-.11,3"/><path class="cls-2" d="M13.27,80.55a.24.24,0,0,1-.2.11l-8.52.72a.36.36,0,0,1-.25-.08.42.42,0,0,1-.12-.23L4,79.81a.31.31,0,0,1,0-.24.25.25,0,0,1,.21-.11l7.28-.61-.71-4.31a.34.34,0,0,1,0-.25.3.3,0,0,1,.22-.12l.92-.08a.33.33,0,0,1,.24.08.41.41,0,0,1,.13.24l1,5.9a.29.29,0,0,1-.06.24"/><path class="cls-2" d="M12.24,73.26a.25.25,0,0,1-.22.08l-8.33,0a.28.28,0,0,1-.22-.09A.29.29,0,0,1,3.38,73V71.8a.31.31,0,0,1,.08-.22.3.3,0,0,1,.23-.08l7.12,0V67.48a.31.31,0,0,1,.32-.32H12a.3.3,0,0,1,.23.09.36.36,0,0,1,.08.23l0,5.55a.31.31,0,0,1-.09.22"/><path class="cls-2" d="M13.46,61.3a.29.29,0,0,1-.24.05L5.83,60.09l-.46,2.47a.3.3,0,0,1-.13.21.32.32,0,0,1-.25,0l-1-.17a.31.31,0,0,1-.23-.12.3.3,0,0,1,0-.25L5,55.48a.36.36,0,0,1,.13-.22.34.34,0,0,1,.26,0l1,.17a.3.3,0,0,1,.21.13.31.31,0,0,1,0,.25l-.46,2.45,7.39,1.26a.33.33,0,0,1,.21.13.38.38,0,0,1,.05.26l-.23,1.23a.33.33,0,0,1-.14.21"/><path class="cls-2" d="M14,50.54a2.49,2.49,0,0,0-1.4-1.1c-.49-.2-.83-.33-1-.39l-1-.34a2.35,2.35,0,0,0-1.72,0,1.84,1.84,0,0,0-.93,1.17A1.94,1.94,0,0,0,8,51.39a2.49,2.49,0,0,0,1.39,1.09c.24.1.58.23,1,.38l1,.35a2.39,2.39,0,0,0,1.73,0,1.78,1.78,0,0,0,.92-1.16,2,2,0,0,0-.1-1.54M13.87,55A3.56,3.56,0,0,1,11,55L9.9,54.67c-.48-.17-.84-.3-1.08-.4a3.86,3.86,0,0,1-2.26-2,4.07,4.07,0,0,1-.09-3A3.76,3.76,0,0,1,8.18,47a3.52,3.52,0,0,1,2.89-.13l1.09.36,1.07.41A3.88,3.88,0,0,1,15.5,49.6a4.09,4.09,0,0,1,.06,3A3.82,3.82,0,0,1,13.87,55"/><path class="cls-2" d="M19.5,43.79a.28.28,0,0,1-.25,0L12.6,40l-1.24,2.22a.34.34,0,0,1-.45.12l-.89-.5a.36.36,0,0,1-.17-.2.31.31,0,0,1,0-.26l3.41-6.12a.33.33,0,0,1,.47-.13l.89.5a.35.35,0,0,1,.16.2.34.34,0,0,1,0,.26l-1.23,2.21,6.65,3.75a.35.35,0,0,1,.16.2.34.34,0,0,1,0,.26l-.61,1.11a.33.33,0,0,1-.2.15"/><path class="cls-2" d="M22.11,38.85a.29.29,0,0,1-.24-.05l-6.7-5.11a.31.31,0,0,1-.06-.45l.75-1a.29.29,0,0,1,.22-.12.32.32,0,0,1,.24.07l2.65,2,2.44-3.08-2.66-2a.34.34,0,0,1-.13-.21.32.32,0,0,1,.07-.24l.75-.94a.3.3,0,0,1,.22-.13.31.31,0,0,1,.24.06l6.71,5.11a.3.3,0,0,1,.12.21.33.33,0,0,1-.08.24l-.75.94a.28.28,0,0,1-.21.12.32.32,0,0,1-.23-.06l-2.76-2.1-2.44,3.08L23,37.34a.28.28,0,0,1,.12.2.28.28,0,0,1-.07.24l-.75.95a.3.3,0,0,1-.21.12"/><path class="cls-2" d="M28.14,31.42a.37.37,0,0,1-.23-.12l-6.22-6.69a.35.35,0,0,1-.12-.24.33.33,0,0,1,.09-.23l4-3.92a.27.27,0,0,1,.23-.08.31.31,0,0,1,.23.12l.63.68a.34.34,0,0,1,.11.24.34.34,0,0,1-.1.23l-3,2.93,1.69,1.81,2.78-2.73a.29.29,0,0,1,.23-.09.31.31,0,0,1,.23.12l.59.63a.32.32,0,0,1,.1.24.29.29,0,0,1-.1.23l-2.78,2.73,1.75,1.89,3.06-3a.27.27,0,0,1,.23-.08.31.31,0,0,1,.23.12l.63.68a.34.34,0,0,1,.11.24.34.34,0,0,1-.1.23l-4.06,4a.33.33,0,0,1-.22.08"/><g class="cls-4"><path class="cls-2" d="M36.43,18.21a1.56,1.56,0,0,0,.77-.93,1.39,1.39,0,0,0-.26-1.12,1.53,1.53,0,0,0-.92-.73,1.59,1.59,0,0,0-1.19.29l-1.52,1,1.6,2.49Zm-.14,6.19a.32.32,0,0,1-.21-.15L31.16,16.6a.35.35,0,0,1-.07-.25.28.28,0,0,1,.14-.2L34,14.39a3.52,3.52,0,0,1,2.5-.62,2.92,2.92,0,0,1,2,1.43A3.07,3.07,0,0,1,39,16.88a2.5,2.5,0,0,1-.53,1.51l3.51,2a.65.65,0,0,1,.12.11.35.35,0,0,1,0,.22.3.3,0,0,1-.11.17l-1,.62a.46.46,0,0,1-.32.08.94.94,0,0,1-.32-.13l-3.19-1.91-1.49.94,1.81,2.82a.36.36,0,0,1,.06.24.25.25,0,0,1-.14.2l-1,.62A.24.24,0,0,1,36.29,24.4Z"/></g><path class="cls-2" d="M43.41,19.68a.33.33,0,0,1-.18-.17l-3.65-8.06a.34.34,0,0,1,0-.26.27.27,0,0,1,.17-.18l5.36-2.37a.34.34,0,0,1,.26,0,.39.39,0,0,1,.19.19l.37.82a.31.31,0,0,1,0,.25.32.32,0,0,1-.18.18l-4,1.77,1,2.2,3.74-1.66a.34.34,0,0,1,.26,0,.32.32,0,0,1,.18.18l.35.77a.31.31,0,0,1,0,.25.32.32,0,0,1-.18.18l-3.74,1.66,1,2.26,4.11-1.81a.34.34,0,0,1,.26,0,.44.44,0,0,1,.19.19l.37.82a.31.31,0,0,1,0,.25.32.32,0,0,1-.18.18l-5.46,2.41a.31.31,0,0,1-.25,0"/><path class="cls-2" d="M54.89,12l-2.6-3.59L52,12.72Zm-4.6,4.71a.23.23,0,0,1-.13-.17v-.12l.6-9.13a.41.41,0,0,1,.34-.44l1.38-.37a.46.46,0,0,1,.54.21l5.48,7.49a.43.43,0,0,1,0,.11.28.28,0,0,1,0,.22.28.28,0,0,1-.16.12l-1.1.3a.48.48,0,0,1-.27,0,.45.45,0,0,1-.16-.14l-1.06-1.41-3.75,1-.13,1.73a.38.38,0,0,1-.29.35l-1.1.29A.27.27,0,0,1,50.29,16.66Z"/><path class="cls-2" d="M59.57,14.19a.31.31,0,0,1-.11-.2L58.24,5.81a.26.26,0,0,1,0-.23.3.3,0,0,1,.2-.1l1.15-.14a.29.29,0,0,1,.22.06.37.37,0,0,1,.12.21l1,7,3.91-.46a.3.3,0,0,1,.23.06.32.32,0,0,1,.12.22l.13.88a.27.27,0,0,1,0,.23.3.3,0,0,1-.21.1l-5.35.63a.31.31,0,0,1-.23-.06"/><path class="cls-2" d="M71.4,13.8a.36.36,0,0,1-.09-.24V6l-2.49-.2a.37.37,0,0,1-.23-.12.32.32,0,0,1-.09-.24v-1a.31.31,0,0,1,.09-.24.25.25,0,0,1,.23-.08l6.86.54a.35.35,0,0,1,.24.12A.43.43,0,0,1,76,5V6a.33.33,0,0,1-.1.23.28.28,0,0,1-.24.07L73.2,6.11v7.6a.32.32,0,0,1-.09.23.3.3,0,0,1-.24.07l-1.24-.09a.35.35,0,0,1-.23-.12"/><path class="cls-2" d="M81.36,11.46l-1-4.37-2,3.75Zm-6.1,2.07a.34.34,0,0,1-.07-.22l0-.11,4.17-7.8a.39.39,0,0,1,.49-.23l1.41.3a.5.5,0,0,1,.41.43L83.8,15a.47.47,0,0,1,0,.12.24.24,0,0,1-.1.18.22.22,0,0,1-.19,0l-1.13-.24a.43.43,0,0,1-.25-.13.47.47,0,0,1-.1-.2l-.41-1.73-3.85-.82L77,13.72a.35.35,0,0,1-.41.17l-1.13-.24a.3.3,0,0,1-.17-.12Z"/><path class="cls-2" d="M86.07,15.75a3.25,3.25,0,0,1-1-1.37A2.25,2.25,0,0,1,85,13a.29.29,0,0,1,.14-.17.28.28,0,0,1,.22,0l1.16.4a.43.43,0,0,1,.23.14.67.67,0,0,1,.1.24,1.51,1.51,0,0,0,.37,1,2.62,2.62,0,0,0,1.2.73,2.71,2.71,0,0,0,1.5.17,1,1,0,0,0,.74-.7.91.91,0,0,0-.06-.69A2.16,2.16,0,0,0,90,13.4c-.29-.22-.72-.52-1.3-.9a5.94,5.94,0,0,1-2-1.74,2.29,2.29,0,0,1-.17-2,2.32,2.32,0,0,1,.83-1.21A2.8,2.8,0,0,1,88.91,7a4.82,4.82,0,0,1,1.93.27,4.67,4.67,0,0,1,1.74,1,3.43,3.43,0,0,1,.91,1.36A2.23,2.23,0,0,1,93.57,11a.26.26,0,0,1-.13.16.3.3,0,0,1-.23,0L92,10.73a.41.41,0,0,1-.3-.37,1.17,1.17,0,0,0-.31-.88,2.18,2.18,0,0,0-1-.66,2.21,2.21,0,0,0-1.24-.11.88.88,0,0,0-.67.66.91.91,0,0,0,0,.67,2,2,0,0,0,.53.64,12.17,12.17,0,0,0,1.18.85,10.1,10.1,0,0,1,1.66,1.21,2.56,2.56,0,0,1,.76,1.18,2.36,2.36,0,0,1-.06,1.38,2.44,2.44,0,0,1-.92,1.3,3,3,0,0,1-1.61.51,5.55,5.55,0,0,1-2-.33,5.61,5.61,0,0,1-1.9-1"/><path class="cls-2" d="M94.29,18.88a.33.33,0,0,1,0-.24l3-6.43-2.16-1.08A.35.35,0,0,1,95,11a.29.29,0,0,1,0-.24l.4-.86a.33.33,0,0,1,.18-.17.29.29,0,0,1,.24,0l6,3a.39.39,0,0,1,.17.19.32.32,0,0,1,0,.25l-.41.86a.3.3,0,0,1-.17.16.32.32,0,0,1-.25,0L99,13l-3,6.44a.27.27,0,0,1-.18.15.29.29,0,0,1-.24,0l-1.08-.53a.31.31,0,0,1-.16-.18"/><path class="cls-2" d="M99.14,21.35a.29.29,0,0,1,0-.24l4.6-7.26a.33.33,0,0,1,.2-.15.34.34,0,0,1,.25.06l5,3.53a.36.36,0,0,1,.16.23.28.28,0,0,1,0,.25l-.46.74a.3.3,0,0,1-.21.14.4.4,0,0,1-.25-.07l-3.75-2.64-1.25,2,3.5,2.46a.38.38,0,0,1,.16.22.32.32,0,0,1,0,.25l-.44.69a.28.28,0,0,1-.21.14.36.36,0,0,1-.25-.07l-3.5-2.47-1.3,2,3.85,2.71a.38.38,0,0,1,.16.22.34.34,0,0,1-.05.26l-.47.73a.28.28,0,0,1-.2.14.35.35,0,0,1-.25-.07l-5.12-3.59a.4.4,0,0,1-.14-.22"/><path class="cls-2" d="M112.38,30a2.46,2.46,0,0,0,1.59-.77c.39-.37.66-.62.79-.76s.4-.41.76-.79a2.48,2.48,0,0,0,.78-1.58,1.91,1.91,0,0,0-.63-1.4,1.85,1.85,0,0,0-1.39-.61,2.41,2.41,0,0,0-1.59.77c-.19.18-.46.43-.79.76s-.58.59-.76.79a2.34,2.34,0,0,0-.78,1.58,1.85,1.85,0,0,0,.62,1.39,1.9,1.9,0,0,0,1.4.62m-3.85-2.18a3.72,3.72,0,0,1,1.2-2.71c.18-.2.45-.47.81-.83l.83-.81a3.75,3.75,0,0,1,2.73-1.17,4,4,0,0,1,2.67,1.3,4,4,0,0,1,1.32,2.66A3.69,3.69,0,0,1,116.91,29c-.35.38-.62.66-.8.84s-.45.44-.83.79a3.81,3.81,0,0,1-2.74,1.2,4.08,4.08,0,0,1-2.67-1.34,4,4,0,0,1-1.34-2.66"/><g class="cls-5"><path class="cls-2" d="M114.35,34.87a.39.39,0,0,1,.13-.21l7.09-5.28a.43.43,0,0,1,.25-.08.33.33,0,0,1,.21.12l3.27,4.37a.34.34,0,0,1,.06.24.35.35,0,0,1-.15.21l-.76.57a.28.28,0,0,1-.24.07.27.27,0,0,1-.21-.13l-2.42-3.23-2.07,1.54,2.27,3a.28.28,0,0,1,.06.23.35.35,0,0,1-.14.22l-.77.57a.32.32,0,0,1-.24.07.34.34,0,0,1-.21-.13l-2.26-3-2.7,2a.3.3,0,0,1-.25.07.28.28,0,0,1-.2-.12l-.67-.89a.31.31,0,0,1-.05-.23"/></g><path class="cls-2" d="M120.53,43a.26.26,0,0,1,.15-.17l7.39-3.43a.3.3,0,0,1,.42.15l.52,1.07a.32.32,0,0,1,0,.25.35.35,0,0,1-.17.17l-2.92,1.36,1.68,3.47,2.93-1.36a.33.33,0,0,1,.24,0,.3.3,0,0,1,.18.17l.51,1.06a.32.32,0,0,1,0,.25.3.3,0,0,1-.17.18L124,49.58a.26.26,0,0,1-.24,0,.42.42,0,0,1-.18-.17L123,48.36a.33.33,0,0,1,0-.24.28.28,0,0,1,.15-.17l3-1.41-1.68-3.48-3,1.41a.31.31,0,0,1-.23,0,.33.33,0,0,1-.18-.17l-.52-1.07a.29.29,0,0,1,0-.24"/><path class="cls-2" d="M128.5,55.25l3.29-2.44-4.15-.37.86,2.81Zm-4.68-4.6a.22.22,0,0,1,.15-.13h.12l8.68.82a.44.44,0,0,1,.44.35l.41,1.35a.41.41,0,0,1-.17.51l-6.85,5.14a.34.34,0,0,1-.1,0,.26.26,0,0,1-.21,0,.23.23,0,0,1-.12-.15l-.33-1.07a.36.36,0,0,1,0-.27.42.42,0,0,1,.13-.16l1.29-1-1.13-3.68-1.65-.17a.38.38,0,0,1-.34-.29l-.33-1.08a.28.28,0,0,1,0-.2Z"/><path class="cls-2" d="M131.51,63a1.69,1.69,0,0,0,.52,1.13,1.36,1.36,0,0,0,1.13.26,1.42,1.42,0,0,0,1-.55,1.62,1.62,0,0,0,.24-1.24l-.26-1.94-2.92.4L131.5,63ZM126.2,60a.3.3,0,0,1,.21-.12l8.65-1.18a.3.3,0,0,1,.25,0,.33.33,0,0,1,.13.22l.47,3.55a3.89,3.89,0,0,1-.42,2.61,2.73,2.73,0,0,1-2.07,1.22,2.67,2.67,0,0,1-2.31-.61A3.92,3.92,0,0,1,130,63.3l-.26-2-3.11.42a.3.3,0,0,1-.36-.27l-.17-1.26A.34.34,0,0,1,126.2,60Z"/><path class="cls-2" d="M132.22,72.21a1.87,1.87,0,0,0,.39,1.22,1.44,1.44,0,0,0,1.09.47,1.33,1.33,0,0,0,1.07-.36,1.59,1.59,0,0,0,.37-1.2l0-2-2.92-.13Zm-4.88-4a.29.29,0,0,1,.22-.09l8.64.39a.37.37,0,0,1,.25.1.32.32,0,0,1,.09.24l.08,3.63a3.85,3.85,0,0,1-.7,2.53,2.48,2.48,0,0,1-2.18.83,2.81,2.81,0,0,1-2.21-1,4.25,4.25,0,0,1-.78-2.6l0-2-3.11-.14a.34.34,0,0,1-.23-.1.38.38,0,0,1-.1-.24l0-1.29A.29.29,0,0,1,127.34,68.2Z"/><path class="cls-2" d="M127.18,77.39a.3.3,0,0,1,.24-.07l8.76.8a.3.3,0,0,1,.22.11.37.37,0,0,1,0,.23l-.18,1.25a.39.39,0,0,1-.12.23.35.35,0,0,1-.25.06l-8.76-.8a.27.27,0,0,1-.21-.1.26.26,0,0,1-.06-.24l.18-1.25a.34.34,0,0,1,.13-.22"/><path class="cls-2" d="M126.75,80.72a.34.34,0,0,1,.24,0l8.4,1.88a.33.33,0,0,1,.21.14.3.3,0,0,1,0,.25l-.24,1a.51.51,0,0,1-.12.22.77.77,0,0,1-.18.1l-6.69,2.42L134.07,88a.29.29,0,0,1,.21.13.3.3,0,0,1,0,.25l-.27,1.08a.32.32,0,0,1-.14.21.33.33,0,0,1-.26,0l-8.39-1.88a.34.34,0,0,1-.21-.14.33.33,0,0,1,0-.24l.24-1a.49.49,0,0,1,.3-.33l6.56-2.43-5.55-1.24a.31.31,0,0,1-.2-.15.35.35,0,0,1,0-.25l.27-1.08a.35.35,0,0,1,.14-.2"/><path class="cls-2" d="M123.94,89.82a.31.31,0,0,1,.23,0l7.66,3.07a.32.32,0,0,1,.18.16.26.26,0,0,1,0,.24l-2,5.18a.29.29,0,0,1-.17.17.25.25,0,0,1-.24,0l-.77-.31a.3.3,0,0,1-.18-.17.29.29,0,0,1,0-.24l1.53-3.87-2.08-.83-1.43,3.61a.35.35,0,0,1-.16.18.33.33,0,0,1-.24,0l-.73-.29a.31.31,0,0,1-.17-.17.29.29,0,0,1,0-.24l1.43-3.61-2.16-.86-1.57,4a.29.29,0,0,1-.16.18.31.31,0,0,1-.25,0l-.77-.31a.29.29,0,0,1-.18-.16.33.33,0,0,1,0-.24L123.78,90a.27.27,0,0,1,.16-.17"/><path class="cls-2" d="M121.09,97.93a3.07,3.07,0,0,1,1.49-.66,2.28,2.28,0,0,1,1.35.22.27.27,0,0,1,.13.17.28.28,0,0,1,0,.22l-.6,1a.42.42,0,0,1-.18.19.58.58,0,0,1-.25,0,1.4,1.4,0,0,0-1,.16,2.44,2.44,0,0,0-.94,1,2.6,2.6,0,0,0-.44,1.42,1,1,0,0,0,.52.86.86.86,0,0,0,.66.09,2,2,0,0,0,.74-.44c.27-.22.64-.58,1.11-1.06a5.75,5.75,0,0,1,2-1.52,2.2,2.2,0,0,1,1.92.25,2.33,2.33,0,0,1,1,1.06,2.78,2.78,0,0,1,.21,1.54,4.53,4.53,0,0,1-.63,1.8,4.38,4.38,0,0,1-1.3,1.47,3.23,3.23,0,0,1-1.47.59,2.16,2.16,0,0,1-1.24-.19.3.3,0,0,1-.14-.17.32.32,0,0,1,0-.21l.62-1.09a.4.4,0,0,1,.42-.22,1.09,1.09,0,0,0,.9-.11,2.08,2.08,0,0,0,.82-.84,2.18,2.18,0,0,0,.35-1.17,1,1,0,0,0-1.14-.91,1.8,1.8,0,0,0-.72.38,12.33,12.33,0,0,0-1,1,9,9,0,0,1-1.48,1.35,2.51,2.51,0,0,1-1.26.48,2.3,2.3,0,0,1-1.3-.35,2.47,2.47,0,0,1-1.07-1.17,2.94,2.94,0,0,1-.17-1.66,5.47,5.47,0,0,1,.71-1.91,5.37,5.37,0,0,1,1.35-1.61"/><g class="cls-6"><path class="cls-2" d="M116.64,104.59a2.9,2.9,0,0,1,1.55-.4,2.33,2.33,0,0,1,1.31.46.31.31,0,0,1,.11.19.26.26,0,0,1-.06.21l-.71.94a.39.39,0,0,1-.19.16.57.57,0,0,1-.26,0,1.4,1.4,0,0,0-1,0,2.32,2.32,0,0,0-1,.83,2.55,2.55,0,0,0-.6,1.34,1.08,1.08,0,0,0,.42,1,.89.89,0,0,0,.65.21,2,2,0,0,0,.77-.31c.29-.18.7-.47,1.22-.87a5.23,5.23,0,0,1,2.18-1.16,2.25,2.25,0,0,1,1.87.58,2.64,2.64,0,0,1,.87,1.23,3,3,0,0,1,0,1.58,4.43,4.43,0,0,1-.83,1.69,4,4,0,0,1-1.45,1.25,3.08,3.08,0,0,1-1.52.33,2.26,2.26,0,0,1-1.2-.4.35.35,0,0,1-.12-.2.27.27,0,0,1,.06-.21l.74-1a.38.38,0,0,1,.44-.14,1.11,1.11,0,0,0,.9,0,2,2,0,0,0,.91-.7,2.17,2.17,0,0,0,.47-1.11,1,1,0,0,0-.4-.88,1,1,0,0,0-.63-.23,1.78,1.78,0,0,0-.75.25,10.86,10.86,0,0,0-1.13.78,8,8,0,0,1-1.61,1.09,2.37,2.37,0,0,1-1.3.27,2.42,2.42,0,0,1-1.25-.59,2.65,2.65,0,0,1-.93-1.35,3,3,0,0,1,0-1.69,5.14,5.14,0,0,1,.92-1.78,4.71,4.71,0,0,1,1.51-1.38"/></g><rect class="cls-7" width="140" height="140"/></g></g></svg>